<svg id="Layer_1" data-name="Layer 1" xmlns="http://www.w3.org/2000/svg" xmlns:xlink="http://www.w3.org/1999/xlink" viewBox="0 0 289 289"><defs><style>.cls-1{fill:none;}.cls-2{fill:#0c2340;}.cls-3{clip-path:url(#clip-path);}.cls-4{opacity:0.8;}.cls-4,.cls-5{isolation:isolate;}.cls-5{fill:#0899cd;opacity:0.2;}</style><clipPath id="clip-path"><rect class="cls-1" y="0.01" width="289" height="289"/></clipPath></defs><title>placement-rate-bkg</title><rect class="cls-2" y="0.01" width="289" height="289"/><g class="cls-3"><g class="cls-4"><polygon class="cls-5" points="117.04 141.2 220.24 296.3 13.84 296.3 117.04 141.2"/><polygon class="cls-5" points="220.74 141.2 323.84 296.3 117.54 296.3 220.74 141.2"/><polygon class="cls-5" points="13.44 141.2 116.64 296.3 -89.76 296.3 13.44 141.2"/><polygon class="cls-5" points="-90.16 141.2 12.94 296.3 -193.36 296.3 -90.16 141.2"/><polygon class="cls-5" points="-38.36 141.2 64.74 296.3 -141.56 296.3 -38.36 141.2"/><polygon class="cls-5" points="272.54 141.2 375.64 296.3 169.34 296.3 272.54 141.2"/><polygon class="cls-5" points="376.14 141.2 479.34 296.3 272.94 296.3 376.14 141.2"/><polygon class="cls-5" points="168.84 63.4 323.74 296.3 13.84 296.3 168.84 63.4"/><polygon class="cls-5" points="117.04 63.4 271.94 296.3 -37.96 296.3 117.04 63.4"/><polygon class="cls-5" points="272.44 63.4 427.34 296.3 117.54 296.3 272.44 63.4"/><polygon class="cls-5" points="324.24 63.4 479.14 296.3 169.34 296.3 324.24 63.4"/><polygon class="cls-5" points="-38.46 63.4 116.44 296.3 -193.36 296.3 -38.46 63.4"/><polygon class="cls-5" points="13.34 63.4 168.24 296.3 -141.56 296.3 13.34 63.4"/><polygon class="cls-5" points="324.34 141.2 427.54 296.3 221.14 296.3 324.34 141.2"/><polygon class="cls-5" points="376.14 141.2 479.34 296.3 272.94 296.3 376.14 141.2"/><polygon class="cls-5" points="-90.16 141.2 12.94 296.3 -193.36 296.3 -90.16 141.2"/><polygon class="cls-5" points="65.24 141.2 168.44 296.3 -37.96 296.3 65.24 141.2"/></g></g></svg>