<?xml version="1.0" encoding="utf-8"?>
<!-- Generator: Adobe Illustrator 21.1.0, SVG Export Plug-In . SVG Version: 6.00 Build 0)  -->
<svg version="1.1" id="Layer_1" xmlns="http://www.w3.org/2000/svg" xmlns:xlink="http://www.w3.org/1999/xlink" x="0px" y="0px"
	 width="457.723px" height="378.863px" viewBox="0 0 457.723 378.863" enable-background="new 0 0 457.723 378.863"
	 xml:space="preserve">
<style type="text/css">
	.st0{fill:#0C2340;}
	.st1{opacity:0.8;enable-background:new    ;}
	.st2{opacity:0.2;clip-path:url(#SVGID_2_);fill:#0899CD;enable-background:new    ;}
	.st3{opacity:0.2;clip-path:url(#SVGID_4_);fill:#0899CD;enable-background:new    ;}
	.st4{opacity:0.2;clip-path:url(#SVGID_6_);fill:#0899CD;enable-background:new    ;}
	.st5{opacity:0.2;clip-path:url(#SVGID_8_);fill:#0899CD;enable-background:new    ;}
	.st6{opacity:0.2;clip-path:url(#SVGID_10_);fill:#0899CD;enable-background:new    ;}
	.st7{opacity:0.2;clip-path:url(#SVGID_12_);fill:#0899CD;enable-background:new    ;}
	.st8{opacity:0.2;clip-path:url(#SVGID_14_);fill:#0899CD;enable-background:new    ;}
	.st9{opacity:0.2;clip-path:url(#SVGID_16_);fill:#0899CD;enable-background:new    ;}
	.st10{opacity:0.2;clip-path:url(#SVGID_18_);fill:#0899CD;enable-background:new    ;}
	.st11{opacity:0.2;clip-path:url(#SVGID_20_);fill:#0899CD;enable-background:new    ;}
	.st12{opacity:0.2;clip-path:url(#SVGID_22_);fill:#0899CD;enable-background:new    ;}
	.st13{opacity:0.2;clip-path:url(#SVGID_24_);fill:#0899CD;enable-background:new    ;}
	.st14{opacity:0.2;clip-path:url(#SVGID_26_);fill:#0899CD;enable-background:new    ;}
	.st15{opacity:0.2;clip-path:url(#SVGID_28_);fill:#0899CD;enable-background:new    ;}
	.st16{opacity:0.2;clip-path:url(#SVGID_30_);fill:#0899CD;enable-background:new    ;}
	.st17{opacity:0.2;clip-path:url(#SVGID_32_);fill:#0899CD;enable-background:new    ;}
	.st18{opacity:0.2;clip-path:url(#SVGID_34_);fill:#0899CD;enable-background:new    ;}
	.st19{fill:none;stroke:#CCCACA;stroke-width:9;stroke-miterlimit:10;}
	.st20{fill:#0191B7;}
	.st21{fill:#036C84;}
	.st22{fill:#0099CC;}
	.st23{fill:#FFFFFF;}
	.st24{fill:none;}
	.st25{enable-background:new    ;}
</style>
<path class="st0" d="M234,15.7h-1h-1c-53.1,0.1-126.6,15.4-170.6,36c0,1.3,0,2.7,0,4c-0.1,67.8,0.8,152.2,29.3,204
	c29.2,53.5,72.8,75,142.3,112c69.6-37,113.1-58.5,142.3-112c28.3-51.4,29.2-134.8,29.1-202.2c0-2,0-3.9,0-5.8
	C359.4,30.1,287.2,15.7,234,15.7z"/>
<g class="st1">
	<g>
		<g>
			<g>
				<g>
					<g>
						<g>
							<g>
								<defs>
									<polygon id="SVGID_1_" points="398.5,76 389.3,207 371.6,256.5 340.1,301.9 316.4,323.9 275.4,348.9 233,371.7 
										176.9,341.1 123,304.9 76.1,246 52.4,106 									"/>
								</defs>
								<clipPath id="SVGID_2_">
									<use xlink:href="#SVGID_1_"  style="overflow:visible;"/>
								</clipPath>
								<polygon class="st2" points="201.4,210.9 304.6,366 98.2,366 								"/>
							</g>
						</g>
					</g>
				</g>
			</g>
		</g>
	</g>
	<g>
		<g>
			<g>
				<g>
					<g>
						<g>
							<g>
								<defs>
									<polygon id="SVGID_3_" points="398.5,76 389.3,207 371.6,256.5 340.1,301.9 316.4,323.9 275.4,348.9 233,371.7 
										176.9,341.1 123,304.9 76.1,246 52.4,106 									"/>
								</defs>
								<clipPath id="SVGID_4_">
									<use xlink:href="#SVGID_3_"  style="overflow:visible;"/>
								</clipPath>
								<polygon class="st3" points="305.1,210.9 408.2,366 201.9,366 								"/>
							</g>
						</g>
					</g>
				</g>
			</g>
		</g>
	</g>
	<g>
		<g>
			<g>
				<g>
					<g>
						<g>
							<g>
								<defs>
									<polygon id="SVGID_5_" points="398.5,76 389.3,207 371.6,256.5 340.1,301.9 316.4,323.9 275.4,348.9 233,371.7 
										176.9,341.1 123,304.9 76.1,246 52.4,106 									"/>
								</defs>
								<clipPath id="SVGID_6_">
									<use xlink:href="#SVGID_5_"  style="overflow:visible;"/>
								</clipPath>
								<polygon class="st4" points="97.8,210.9 201,366 -5.4,366 								"/>
							</g>
						</g>
					</g>
				</g>
			</g>
		</g>
	</g>
	<g>
		<g>
			<g>
				<g>
					<g>
						<g>
							<g>
								<defs>
									<polygon id="SVGID_7_" points="398.5,76 389.3,207 371.6,256.5 340.1,301.9 316.4,323.9 275.4,348.9 233,371.7 
										176.9,341.1 123,304.9 76.1,246 52.4,106 									"/>
								</defs>
								<clipPath id="SVGID_8_">
									<use xlink:href="#SVGID_7_"  style="overflow:visible;"/>
								</clipPath>
								<polygon class="st5" points="-5.8,210.9 97.3,366 -109,366 								"/>
							</g>
						</g>
					</g>
				</g>
			</g>
		</g>
	</g>
	<g>
		<g>
			<g>
				<g>
					<g>
						<g>
							<g>
								<defs>
									<polygon id="SVGID_9_" points="398.5,76 389.3,207 371.6,256.5 340.1,301.9 316.4,323.9 275.4,348.9 233,371.7 
										176.9,341.1 123,304.9 76.1,246 52.4,106 									"/>
								</defs>
								<clipPath id="SVGID_10_">
									<use xlink:href="#SVGID_9_"  style="overflow:visible;"/>
								</clipPath>
								<polygon class="st6" points="46,210.9 149.1,366 -57.2,366 								"/>
							</g>
						</g>
					</g>
				</g>
			</g>
		</g>
	</g>
	<g>
		<g>
			<g>
				<g>
					<g>
						<g>
							<g>
								<defs>
									<polygon id="SVGID_11_" points="398.5,76 389.3,207 371.6,256.5 340.1,301.9 316.4,323.9 275.4,348.9 233,371.7 
										176.9,341.1 123,304.9 76.1,246 52.4,106 									"/>
								</defs>
								<clipPath id="SVGID_12_">
									<use xlink:href="#SVGID_11_"  style="overflow:visible;"/>
								</clipPath>
								<polygon class="st7" points="356.9,210.9 460,366 253.7,366 								"/>
							</g>
						</g>
					</g>
				</g>
			</g>
		</g>
	</g>
	<g>
		<g>
			<g>
				<g>
					<g>
						<g>
							<g>
								<defs>
									<polygon id="SVGID_13_" points="398.5,76 389.3,207 371.6,256.5 340.1,301.9 316.4,323.9 275.4,348.9 233,371.7 
										176.9,341.1 123,304.9 76.1,246 52.4,106 									"/>
								</defs>
								<clipPath id="SVGID_14_">
									<use xlink:href="#SVGID_13_"  style="overflow:visible;"/>
								</clipPath>
								<polygon class="st8" points="460.5,210.9 563.7,366 357.3,366 								"/>
							</g>
						</g>
					</g>
				</g>
			</g>
		</g>
	</g>
	<g>
		<g>
			<g>
				<g>
					<g>
						<g>
							<g>
								<defs>
									<polygon id="SVGID_15_" points="398.5,76 389.3,207 371.6,256.5 340.1,301.9 316.4,323.9 275.4,348.9 233,371.7 
										176.9,341.1 123,304.9 76.1,246 52.4,106 									"/>
								</defs>
								<clipPath id="SVGID_16_">
									<use xlink:href="#SVGID_15_"  style="overflow:visible;"/>
								</clipPath>
								<polygon class="st9" points="253.2,133.1 408.1,366 98.2,366 								"/>
							</g>
						</g>
					</g>
				</g>
			</g>
		</g>
	</g>
	<g>
		<g>
			<g>
				<g>
					<g>
						<g>
							<g>
								<defs>
									<polygon id="SVGID_17_" points="398.5,76 389.3,207 371.6,256.5 340.1,301.9 316.4,323.9 275.4,348.9 233,371.7 
										176.9,341.1 123,304.9 76.1,246 52.4,106 									"/>
								</defs>
								<clipPath id="SVGID_18_">
									<use xlink:href="#SVGID_17_"  style="overflow:visible;"/>
								</clipPath>
								<polygon class="st10" points="201.4,133.1 356.3,366 46.4,366 								"/>
							</g>
						</g>
					</g>
				</g>
			</g>
		</g>
	</g>
	<g>
		<g>
			<g>
				<g>
					<g>
						<g>
							<g>
								<defs>
									<polygon id="SVGID_19_" points="398.5,76 389.3,207 371.6,256.5 340.1,301.9 316.4,323.9 275.4,348.9 233,371.7 
										176.9,341.1 123,304.9 76.1,246 52.4,106 									"/>
								</defs>
								<clipPath id="SVGID_20_">
									<use xlink:href="#SVGID_19_"  style="overflow:visible;"/>
								</clipPath>
								<polygon class="st11" points="356.8,133.1 511.7,366 201.9,366 								"/>
							</g>
						</g>
					</g>
				</g>
			</g>
		</g>
	</g>
	<g>
		<g>
			<g>
				<g>
					<g>
						<g>
							<g>
								<defs>
									<polygon id="SVGID_21_" points="398.5,76 389.3,207 371.6,256.5 340.1,301.9 316.4,323.9 275.4,348.9 233,371.7 
										176.9,341.1 123,304.9 76.1,246 52.4,106 									"/>
								</defs>
								<clipPath id="SVGID_22_">
									<use xlink:href="#SVGID_21_"  style="overflow:visible;"/>
								</clipPath>
								<polygon class="st12" points="408.6,133.1 563.5,366 253.7,366 								"/>
							</g>
						</g>
					</g>
				</g>
			</g>
		</g>
	</g>
	<g>
		<g>
			<g>
				<g>
					<g>
						<g>
							<g>
								<defs>
									<polygon id="SVGID_23_" points="398.5,76 389.3,207 371.6,256.5 340.1,301.9 316.4,323.9 275.4,348.9 233,371.7 
										176.9,341.1 123,304.9 76.1,246 52.4,106 									"/>
								</defs>
								<clipPath id="SVGID_24_">
									<use xlink:href="#SVGID_23_"  style="overflow:visible;"/>
								</clipPath>
								<polygon class="st13" points="45.9,133.1 200.8,366 -109,366 								"/>
							</g>
						</g>
					</g>
				</g>
			</g>
		</g>
	</g>
	<g>
		<g>
			<g>
				<g>
					<g>
						<g>
							<g>
								<defs>
									<polygon id="SVGID_25_" points="398.5,76 389.3,207 371.6,256.5 340.1,301.9 316.4,323.9 275.4,348.9 233,371.7 
										176.9,341.1 123,304.9 76.1,246 52.4,106 									"/>
								</defs>
								<clipPath id="SVGID_26_">
									<use xlink:href="#SVGID_25_"  style="overflow:visible;"/>
								</clipPath>
								<polygon class="st14" points="97.7,133.1 252.6,366 -57.2,366 								"/>
							</g>
						</g>
					</g>
				</g>
			</g>
		</g>
	</g>
	<g>
		<g>
			<g>
				<g>
					<g>
						<g>
							<g>
								<defs>
									<polygon id="SVGID_27_" points="398.5,76 389.3,207 371.6,256.5 340.1,301.9 316.4,323.9 275.4,348.9 233,371.7 
										176.9,341.1 123,304.9 76.1,246 52.4,106 									"/>
								</defs>
								<clipPath id="SVGID_28_">
									<use xlink:href="#SVGID_27_"  style="overflow:visible;"/>
								</clipPath>
								<polygon class="st15" points="408.7,210.9 511.9,366 305.5,366 								"/>
							</g>
						</g>
					</g>
				</g>
			</g>
		</g>
	</g>
	<g>
		<g>
			<g>
				<g>
					<g>
						<g>
							<g>
								<defs>
									<polygon id="SVGID_29_" points="398.5,76 389.3,207 371.6,256.5 340.1,301.9 316.4,323.9 275.4,348.9 233,371.7 
										176.9,341.1 123,304.9 76.1,246 52.4,106 									"/>
								</defs>
								<clipPath id="SVGID_30_">
									<use xlink:href="#SVGID_29_"  style="overflow:visible;"/>
								</clipPath>
								<polygon class="st16" points="460.5,210.9 563.7,366 357.3,366 								"/>
							</g>
						</g>
					</g>
				</g>
			</g>
		</g>
	</g>
	<g>
		<g>
			<g>
				<g>
					<g>
						<g>
							<g>
								<defs>
									<polygon id="SVGID_31_" points="398.5,76 389.3,207 371.6,256.5 340.1,301.9 316.4,323.9 275.4,348.9 233,371.7 
										176.9,341.1 123,304.9 76.1,246 52.4,106 									"/>
								</defs>
								<clipPath id="SVGID_32_">
									<use xlink:href="#SVGID_31_"  style="overflow:visible;"/>
								</clipPath>
								<polygon class="st17" points="-5.8,210.9 97.3,366 -109,366 								"/>
							</g>
						</g>
					</g>
				</g>
			</g>
		</g>
	</g>
	<g>
		<g>
			<g>
				<g>
					<g>
						<g>
							<g>
								<defs>
									<polygon id="SVGID_33_" points="398.5,76 389.3,207 371.6,256.5 340.1,301.9 316.4,323.9 275.4,348.9 233,371.7 
										176.9,341.1 123,304.9 76.1,246 52.4,106 									"/>
								</defs>
								<clipPath id="SVGID_34_">
									<use xlink:href="#SVGID_33_"  style="overflow:visible;"/>
								</clipPath>
								<polygon class="st18" points="149.6,210.9 252.8,366 46.4,366 								"/>
							</g>
						</g>
					</g>
				</g>
			</g>
		</g>
	</g>
</g>
<path class="st19" d="M230.2,14.7h-1h-1c-50.4,0.1-126.6,15.4-170.6,36c0,1.3,0,2.7,0,4c-0.1,67.8,0.8,152.2,29.3,204
	c29.2,53.5,72.8,75,142.3,112c69.5-37,113.1-58.5,142.3-112c28.3-51.4,29.2-134.8,29.1-202.2c0-2,0-3.9,0-5.8
	C355.6,29.1,283.4,14.7,230.2,14.7z"/>
<polygon class="st20" points="397.5,207.7 445.4,207.7 427.4,241.3 445.4,274.9 397.5,274.9 "/>
<polygon class="st20" points="60.7,207.7 12.8,207.7 30.8,241.3 12.8,274.9 60.7,274.9 "/>
<polygon class="st21" points="417.1,292 417.1,224.8 397.5,207.1 397.5,266.2 "/>
<polygon class="st21" points="41,292.1 41,224.8 60.6,207.1 60.6,266.2 "/>
<g>
	<path class="st22" d="M97,173.6c2.4,1.4,8.7,5.2,17.5,5.2c20.2,0,22.9-19,22.9-28.6h-0.3c-3.9,6-10.7,8.2-18,8.2
		c-18.3,0-29.2-13.7-29.2-37.8c0-20.7,13.1-35.4,34.3-35.4c32.4,0,40.3,27.2,40.3,53.7c0,23.7-6,60.4-45.5,60.4
		c-10.6,0-19.4-2.4-23.5-4.4L97,173.6z M126.9,104.6c-6.8,0-9.2,7-9.2,16.7s2.1,16,9,16c7.3,0,9.3-7,9.3-16.7
		C136,111.1,133.2,104.6,126.9,104.6z"/>
</g>
<g>
	<path class="st23" d="M96,170.6c2.4,1.4,8.7,5.2,17.5,5.2c20.2,0,22.9-19,22.9-28.6h-0.3c-3.9,6-10.7,8.2-18,8.2
		c-18.3,0-29.2-13.7-29.2-37.8c0-20.7,13.1-35.4,34.3-35.4c32.4,0,40.3,27.2,40.3,53.7c0,23.7-6,60.4-45.5,60.4
		c-10.6,0-19.4-2.4-23.5-4.4L96,170.6z M125.9,101.6c-6.8,0-9.2,7-9.2,16.7s2.1,16,9,16c7.3,0,9.3-7,9.3-16.7
		C135,108.1,132.2,101.6,125.9,101.6z"/>
</g>
<g>
	<polygon class="st22" points="417.1,224.8 417.1,292 41,291.9 41,224.7 	"/>
</g>
<rect x="61.6" y="239.8" class="st24" width="299.8" height="47.3"/>
<g>
	<g>
		<path class="st0" d="M100.4,250.2c-1.8-0.9-4.2-1.6-6.5-1.6c-2.2,0-5.3,0.9-5.3,3.6c0,5,10.7,4.7,10.7,13.4
			c0,7.7-6,10.5-12.9,10.5c-3,0-6.1-0.7-9-1.8L79,269c2.4,1.1,5,2.2,7.7,2.2c3,0,6-1.5,6-4.9c0-5.7-10.7-4.8-10.7-13.1
			c0-6.6,5.7-9.5,11.7-9.5c2.7,0,5.6,0.4,8.1,1.4L100.4,250.2z"/>
		<path class="st0" d="M116.1,244.2l-3.2,14.9c-1,4.4-2.7,12.1,4.3,12.1c6.5,0,7.7-5.9,8.8-11.1l3.4-15.9h6.2l-4.2,19
			c-1.8,8.1-5.6,13-14.3,13c-10.3,0-12.8-5.9-10.9-14.9l3.6-17h6.3C116.1,244.3,116.1,244.2,116.1,244.2z"/>
		<path class="st0" d="M163.2,250.4c-1.4-1-3.8-1.8-7.2-1.8c-7,0-11.9,5.3-11.9,12.6c0,5.3,3.4,9.9,9,9.9c2.7,0,4.8-0.9,6.6-1.9
			l-1,6c-2.3,0.6-4.7,0.9-7.1,0.9c-9.5,0-14-6.4-14-14.9c0-10.1,6.9-17.6,18-17.6c3.1,0,6.5,0.4,9.2,1.5L163.2,250.4z"/>
		<path class="st0" d="M190.7,250.4c-1.4-1-3.8-1.8-7.2-1.8c-7,0-11.9,5.3-11.9,12.6c0,5.3,3.4,9.9,9,9.9c2.7,0,4.8-0.9,6.6-1.9
			l-1,6c-2.3,0.6-4.7,0.9-7.1,0.9c-9.5,0-14-6.4-14-14.9c0-10.1,6.9-17.6,18-17.6c3.1,0,6.5,0.4,9.2,1.5L190.7,250.4z"/>
		<path class="st0" d="M197.4,244.2h18.5l-0.9,4.9h-12.3l-1.6,7.7h11l-1,4.9h-11l-1.8,8.8h12.4l-1.1,4.9h-18.7L197.4,244.2z"/>
		<path class="st0" d="M237.8,250.2c-1.8-0.9-4.2-1.6-6.5-1.6c-2.2,0-5.3,0.9-5.3,3.6c0,5,10.7,4.7,10.7,13.4
			c0,7.7-6,10.5-12.9,10.5c-3,0-6.1-0.7-9-1.8l1.6-5.4c2.4,1.1,5,2.2,7.7,2.2c3,0,6-1.5,6-4.9c0-5.7-10.7-4.8-10.7-13.1
			c0-6.6,5.7-9.5,11.7-9.5c2.7,0,5.6,0.4,8.1,1.4L237.8,250.2z"/>
		<path class="st0" d="M262.8,250.2c-1.8-0.9-4.2-1.6-6.5-1.6c-2.2,0-5.3,0.9-5.3,3.6c0,5,10.7,4.7,10.7,13.4
			c0,7.7-6,10.5-12.9,10.5c-3,0-6.1-0.7-9-1.8l1.6-5.4c2.4,1.1,5,2.2,7.7,2.2c3,0,6-1.5,6-4.9c0-5.7-10.7-4.8-10.7-13.1
			c0-6.6,5.7-9.5,11.7-9.5c2.7,0,5.6,0.4,8.1,1.4L262.8,250.2z"/>
		<path class="st0" d="M284.5,244.2h7.4c5.8,0,12.5-0.1,12.5,7.4c0,5.4-4,8.3-9.2,8.4v0.1c1.7,0.1,2.8,1.2,3.2,2.9l3,12.6h-6.6
			l-1.5-7.4c-0.7-3.3-0.5-5.7-4-5.7H287l-2.7,13H278L284.5,244.2z M288.1,257.6h2.3c3.4,0,7.5-1,7.5-5.2c0-3.3-2.8-3.3-5.4-3.3h-2.6
			L288.1,257.6z"/>
		<path class="st0" d="M321.6,244.2h7l5.7,31.4H328l-1.1-7.2h-13.4l-4,7.2h-7L321.6,244.2z M316.3,263.4h9.7l-2-13.7h-0.2
			L316.3,263.4z"/>
		<path class="st0" d="M338.5,244.2h24.2l-1,4.9h-8.9l-5.7,26.4h-6.6l5.7-26.4h-8.9L338.5,244.2z"/>
		<path class="st0" d="M366.6,244.2h18.5l-0.9,4.9h-12.3l-1.6,7.7h11l-1,4.9h-11l-1.8,8.8h12.4l-1.1,4.9H360L366.6,244.2z"/>
	</g>
	<rect x="26" y="240.6" class="st24" width="406.1" height="35.3"/>
	<g class="st25">
		<path class="st23" d="M97.4,249c-1.8-0.9-4.2-1.6-6.5-1.6c-2.2,0-5.3,0.9-5.3,3.6c0,5,10.7,4.7,10.7,13.4c0,7.7-6,10.5-12.9,10.5
			c-3,0-6.1-0.7-9-1.8l1.6-5.4c2.4,1.1,5,2.2,7.7,2.2c3,0,6-1.5,6-4.9c0-5.7-10.7-4.8-10.7-13.1c0-6.6,5.7-9.5,11.7-9.5
			c2.7,0,5.6,0.4,8.1,1.4L97.4,249z"/>
		<path class="st23" d="M113.2,242.9l-3.2,14.9c-1,4.4-2.7,12.1,4.3,12.1c6.5,0,7.7-5.9,8.8-11.1l3.4-15.9h6.2l-4.2,19
			c-1.8,8.1-5.6,13-14.3,13c-10.3,0-12.8-5.9-10.9-14.9l3.6-17h6.3V242.9z"/>
		<path class="st23" d="M160.3,249.2c-1.4-1-3.8-1.8-7.2-1.8c-7,0-11.9,5.3-11.9,12.6c0,5.3,3.4,9.9,9,9.9c2.7,0,4.8-0.9,6.6-1.9
			l-1,6c-2.3,0.6-4.7,0.9-7.1,0.9c-9.5,0-14-6.4-14-14.9c0-10.1,6.9-17.6,18-17.6c3.1,0,6.5,0.4,9.2,1.5L160.3,249.2z"/>
		<path class="st23" d="M187.8,249.2c-1.4-1-3.8-1.8-7.2-1.8c-7,0-11.9,5.3-11.9,12.6c0,5.3,3.4,9.9,9,9.9c2.7,0,4.8-0.9,6.6-1.9
			l-1,6c-2.3,0.6-4.7,0.9-7.1,0.9c-9.5,0-14-6.4-14-14.9c0-10.1,6.9-17.6,18-17.6c3.1,0,6.5,0.4,9.2,1.5L187.8,249.2z"/>
		<path class="st23" d="M194.5,242.9H213l-0.9,4.9h-12.3l-1.6,7.7h11l-1,4.9h-11l-1.8,8.8h12.4l-1.1,4.9H188L194.5,242.9z"/>
		<path class="st23" d="M234.9,249c-1.8-0.9-4.2-1.6-6.5-1.6c-2.2,0-5.3,0.9-5.3,3.6c0,5,10.7,4.7,10.7,13.4c0,7.7-6,10.5-12.9,10.5
			c-3,0-6.1-0.7-9-1.8l1.6-5.4c2.4,1.1,5,2.2,7.7,2.2c3,0,6-1.5,6-4.9c0-5.7-10.7-4.8-10.7-13.1c0-6.6,5.7-9.5,11.7-9.5
			c2.7,0,5.6,0.4,8.1,1.4L234.9,249z"/>
		<path class="st23" d="M259.9,249c-1.8-0.9-4.2-1.6-6.5-1.6c-2.2,0-5.3,0.9-5.3,3.6c0,5,10.7,4.7,10.7,13.4c0,7.7-6,10.5-12.9,10.5
			c-3,0-6.1-0.7-9-1.8l1.6-5.4c2.4,1.1,5,2.2,7.7,2.2c3,0,6-1.5,6-4.9c0-5.7-10.7-4.8-10.7-13.1c0-6.6,5.7-9.5,11.7-9.5
			c2.7,0,5.6,0.4,8.1,1.4L259.9,249z"/>
		<path class="st23" d="M281.6,242.9h7.4c5.8,0,12.5-0.1,12.5,7.4c0,5.4-4,8.3-9.2,8.4v0.1c1.7,0.1,2.8,1.2,3.2,2.9l3,12.6h-6.6
			l-1.5-7.4c-0.7-3.3-0.5-5.7-4-5.7H284l-2.7,13H275L281.6,242.9z M285.2,256.3h2.3c3.4,0,7.5-1,7.5-5.2c0-3.3-2.8-3.3-5.4-3.3H287
			L285.2,256.3z"/>
		<path class="st23" d="M318.7,242.9h7l5.7,31.4h-6.3l-1.1-7.2h-13.4l-4,7.2h-7L318.7,242.9z M313.4,262.2h9.7l-2-13.7H321
			L313.4,262.2z"/>
		<path class="st23" d="M335.6,242.9h24.2l-1,4.9h-8.9l-5.7,26.5h-6.6l5.7-26.5h-8.9L335.6,242.9z"/>
		<path class="st23" d="M363.7,242.9h18.5l-0.9,4.9H369l-1.6,7.7h11l-1,4.9h-11l-1.8,8.8H377l-1.1,4.9h-18.7L363.7,242.9z"/>
	</g>
</g>
<g>
	<path class="st22" d="M188.6,140c-8-3.5-14.8-12.7-14.8-23.6c0-23.6,15.3-31.8,32.3-31.8s29.6,8.9,29.6,28.3
		c0,13.6-6.7,21.7-14.2,25.3v0.3c9.4,3.8,17.4,10.6,17.4,27.2c0,23.7-15.8,33.1-33.8,33.1c-18.5,0-33.5-8.9-33.5-31.5
		c0-16.1,7.8-23.7,17-27.2V140z M204.8,178.9c6.5,0,11.8-5.2,11.8-14.2c0-9.8-7.1-13.8-12.9-16c-5.6,3.3-10,7.9-10,16.5
		C193.7,173.1,198.8,178.9,204.8,178.9z M207.8,131.2c6-4.4,9.7-8.4,9.7-15.8c0-7.9-5.3-11.7-10.3-11.7c-5.6,0-10.1,5.4-10.1,13
		C197.1,125,202.5,128.1,207.8,131.2z"/>
</g>
<g>
	<path class="st23" d="M188.6,137.6c-8-3.5-14.8-12.7-14.8-23.6c0-23.6,15.3-31.8,32.3-31.8s29.6,8.9,29.6,28.3
		c0,13.6-6.7,21.7-14.2,25.3v0.3c9.4,3.8,17.4,10.6,17.4,27.2c0,23.7-15.8,33.1-33.8,33.1c-18.5,0-33.5-8.9-33.5-31.5
		c0-16.1,7.8-23.7,17-27.2V137.6z M204.8,176.5c6.5,0,11.8-5.2,11.8-14.2c0-9.8-7.1-13.8-12.9-16c-5.6,3.3-10,7.9-10,16.5
		C193.7,170.6,198.8,176.5,204.8,176.5z M205.2,128.7c6-4.4,9.7-8.4,9.7-15.8c0-7.9-5.3-11.7-10.3-11.7c-5.6,0-10.1,5.4-10.1,13
		C194.5,122.5,199.9,125.7,205.2,128.7z"/>
</g>
<g>
	<path class="st22" d="M271.4,88.7c19.4,0,24.3,15.4,24.3,30.7c0,15.7-4.9,30.7-24.3,30.7s-24.3-15.1-24.3-30.7
		C247.1,104.1,252,88.7,271.4,88.7z M271.4,102.1c-4.9,0-6.3,6.9-6.3,17.3s1.4,17.3,6.3,17.3c5.1,0,6.3-6.9,6.3-17.3
		S276.5,102.1,271.4,102.1z M325.8,85.4h15.5l-49.9,114.4h-15.5L325.8,85.4z M345.4,135c19.4,0,24.3,15.4,24.3,30.8
		c0,15.7-4.9,30.7-24.3,30.7s-24.3-15.1-24.3-30.7C321.1,150.4,326,135,345.4,135z M345.4,148.4c-4.9,0-6.3,6.9-6.3,17.3
		c0,10.4,1.4,17.3,6.3,17.3c5.1,0,6.3-6.9,6.3-17.3C351.7,155.3,350.4,148.4,345.4,148.4z"/>
	<path class="st23" d="M270.4,85.5c19.4,0,24.3,15.4,24.3,30.7c0,15.7-4.9,30.7-24.3,30.7s-24.3-15.1-24.3-30.7
		C246.1,100.9,251,85.5,270.4,85.5z M270.4,98.9c-4.9,0-6.3,6.9-6.3,17.3s1.4,17.3,6.3,17.3c5.1,0,6.3-6.9,6.3-17.3
		S275.5,98.9,270.4,98.9z M324.8,82.2h15.5l-49.9,114.4h-15.5L324.8,82.2z M344.4,131.8c19.4,0,24.3,15.4,24.3,30.8
		c0,15.7-4.9,30.7-24.3,30.7s-24.3-15.1-24.3-30.7C320.1,147.2,325,131.8,344.4,131.8z M344.4,145.3c-4.9,0-6.3,6.9-6.3,17.3
		s1.4,17.3,6.3,17.3c5.1,0,6.3-6.9,6.3-17.3C350.7,152.2,349.4,145.3,344.4,145.3z"/>
</g>
</svg>
