<?xml version="1.0" encoding="UTF-8"?>
<svg width="1440px" height="345px" viewBox="0 0 1440 345" version="1.1" xmlns="http://www.w3.org/2000/svg" xmlns:xlink="http://www.w3.org/1999/xlink">
    <!-- Generator: Sketch 63.1 (92452) - https://sketch.com -->
    <title>Musketeers on a Mission</title>
    <desc>Created with Sketch.</desc>
    <g id="Welcome" stroke="none" stroke-width="1" fill="none" fill-rule="evenodd" opacity="0.541736421">
        <g id="Desktop-HD" transform="translate(0.000000, -856.000000)" fill="#F0F2F3" fill-rule="nonzero">
            <path d="M89.6,998 L113.8,883.6 L114.2,883.6 L119.4,998 L154.6,998 L209.4,883.6 L209.8,883.6 L184.4,998 L220.8,998 L250.4,858.4 L190.8,858.4 L147,952.2 L146.6,952.2 L144.4,858.4 L86,858.4 L55.6,998 L89.6,998 Z M311.8,1000.4 C362.6,1000.4 373.4,967.8 382.6,923.4 L396.2,858.4 L359.2,858.4 L345.4,921.6 C340.6,944 336.8,972.8 312.8,972.8 C299.6,972.8 293,964 293,952.6 C293,949.4 294.2,944 295.6,937.4 L312.4,858.4 L274.6,858.4 L258.8,930 C257.4,936.4 255.8,945.4 255.8,956.4 C255.8,989.2 280.4,1000.4 311.8,1000.4 Z M432.6,1000.4 C465,1000.4 500.8,990.4 500.8,951.8 C500.8,909.4 446.6,916.8 446.6,897 C446.6,885.8 458.6,883.6 473.4,883.6 C487.2,883.6 497,886.6 504.2,890 L513.2,862.2 C503.8,857.8 487.6,856 470.4,856 C439.8,856 408.2,866.8 408.2,902.8 C408.2,942.2 462.4,933.8 462.4,956.2 C462.4,970.6 444.2,972.8 432.6,972.8 C420.4,972.8 405.6,969.6 398.2,964.8 L389.4,993.2 C401.6,997 418.2,1000.4 432.6,1000.4 Z M550.4,998 L563.8,934.6 L564.2,934.6 L598.6,998 L641.6,998 L600.4,926.2 L666.8,858.4 L618.6,858.4 L568.2,915.4 L567.8,915.4 L579.8,858.4 L542.2,858.4 L512.8,998 L550.4,998 Z M758.2,998 L763.6,971.6 L699.8,971.6 L706.6,940 L764.6,940 L770.4,913.6 L712.2,913.6 L718.6,884.8 L780,884.8 L785.4,858.4 L687.2,858.4 L657.2,998 L758.2,998 Z M841,998 L864.8,886 L899.6,886 L905.6,858.4 L798.2,858.4 L792.2,886 L827,886 L803.2,998 L841,998 Z M991.6,998 L997,971.6 L933.2,971.6 L940,940 L998,940 L1003.8,913.6 L945.6,913.6 L952,884.8 L1013.4,884.8 L1018.8,858.4 L920.6,858.4 L890.6,998 L991.6,998 Z M1113.8,998 L1119.2,971.6 L1055.4,971.6 L1062.2,940 L1120.2,940 L1126,913.6 L1067.8,913.6 L1074.2,884.8 L1135.6,884.8 L1141,858.4 L1042.8,858.4 L1012.8,998 L1113.8,998 Z M1172.4,998 L1183.6,942.8 L1187.6,942.8 C1204.4,942.8 1205.6,944.2 1209.2,962.4 L1216.4,998 L1253.6,998 L1243.6,955 C1241.6,946 1238,931.2 1227,930.2 L1227,929.8 C1248.4,927.2 1267.6,918.6 1267.6,894 C1267.6,859.4 1235.6,858.6 1209,858.4 L1164.4,858.4 L1135,998 L1172.4,998 Z M1201.6,916.4 L1189,916.4 L1195.4,884.8 L1213.2,884.8 C1224.4,885 1230.4,889.2 1230.4,899.2 C1230.4,912.4 1217.8,916.4 1201.6,916.4 Z M1310.4,1000.4 C1342.8,1000.4 1378.6,990.4 1378.6,951.8 C1378.6,909.4 1324.4,916.8 1324.4,897 C1324.4,885.8 1336.4,883.6 1351.2,883.6 C1365,883.6 1374.8,886.6 1382,890 L1391,862.2 C1381.6,857.8 1365.4,856 1348.2,856 C1317.6,856 1286,866.8 1286,902.8 C1286,942.2 1340.2,933.8 1340.2,956.2 C1340.2,970.6 1322,972.8 1310.4,972.8 C1298.2,972.8 1283.4,969.6 1276,964.8 L1267.2,993.2 C1279.4,997 1296,1000.4 1310.4,1000.4 Z M60.6,1200.4 C114.4,1200.4 142.2,1165.8 142.2,1113 C142.2,1084.2 125.6,1056 80.2,1056 C26.4,1056 -1.4,1090.6 -1.4,1143.6 C-1.4,1172.2 15.2,1200.4 60.6,1200.4 Z M63,1172.8 C43.6,1172.8 37,1158.2 37,1140.6 C37,1117 49,1083.6 77.8,1083.6 C97.2,1083.6 103.8,1098.4 103.8,1116 C103.8,1139.4 91.8,1172.8 63,1172.8 Z M181,1198 L200.4,1101.4 L200.8,1101.4 L230,1198 L276.4,1198 L306,1058.4 L270.8,1058.4 L251.2,1155.2 L250.8,1155.2 L222.2,1058.4 L175.6,1058.4 L145.8,1198 L181,1198 Z M392.2,1198 L408.8,1168.2 L463,1168.2 L466.8,1198 L504.4,1198 L481.6,1058.4 L434.8,1058.4 L351.8,1198 L392.2,1198 Z M459.4,1141.8 L423.4,1141.8 L453,1087.2 L453.4,1087.2 L459.4,1141.8 Z M612,1198 L636.2,1083.6 L636.6,1083.6 L641.8,1198 L677,1198 L731.8,1083.6 L732.2,1083.6 L706.8,1198 L743.2,1198 L772.8,1058.4 L713.2,1058.4 L669.4,1152.2 L669,1152.2 L666.8,1058.4 L608.4,1058.4 L578,1198 L612,1198 Z M807.8,1198 L836.8,1058.4 L799.2,1058.4 L770.2,1198 L807.8,1198 Z M877.2,1200.4 C909.6,1200.4 945.4,1190.4 945.4,1151.8 C945.4,1109.4 891.2,1116.8 891.2,1097 C891.2,1085.8 903.2,1083.6 918,1083.6 C931.8,1083.6 941.6,1086.6 948.8,1090 L957.8,1062.2 C948.4,1057.8 932.2,1056 915,1056 C884.4,1056 852.8,1066.8 852.8,1102.8 C852.8,1142.2 907,1133.8 907,1156.2 C907,1170.6 888.8,1172.8 877.2,1172.8 C865,1172.8 850.2,1169.6 842.8,1164.8 L834,1193.2 C846.2,1197 862.8,1200.4 877.2,1200.4 Z M999.4,1200.4 C1031.8,1200.4 1067.6,1190.4 1067.6,1151.8 C1067.6,1109.4 1013.4,1116.8 1013.4,1097 C1013.4,1085.8 1025.4,1083.6 1040.2,1083.6 C1054,1083.6 1063.8,1086.6 1071,1090 L1080,1062.2 C1070.6,1057.8 1054.4,1056 1037.2,1056 C1006.6,1056 975,1066.8 975,1102.8 C975,1142.2 1029.2,1133.8 1029.2,1156.2 C1029.2,1170.6 1011,1172.8 999.4,1172.8 C987.2,1172.8 972.4,1169.6 965,1164.8 L956.2,1193.2 C968.4,1197 985,1200.4 999.4,1200.4 Z M1118.8,1198 L1147.8,1058.4 L1110.2,1058.4 L1081.2,1198 L1118.8,1198 Z M1216.2,1200.4 C1270,1200.4 1297.8,1165.8 1297.8,1113 C1297.8,1084.2 1281.2,1056 1235.8,1056 C1182,1056 1154.2,1090.6 1154.2,1143.6 C1154.2,1172.2 1170.8,1200.4 1216.2,1200.4 Z M1218.6,1172.8 C1199.2,1172.8 1192.6,1158.2 1192.6,1140.6 C1192.6,1117 1204.6,1083.6 1233.4,1083.6 C1252.8,1083.6 1259.4,1098.4 1259.4,1116 C1259.4,1139.4 1247.4,1172.8 1218.6,1172.8 Z M1336.6,1198 L1356,1101.4 L1356.4,1101.4 L1385.6,1198 L1432,1198 L1461.6,1058.4 L1426.4,1058.4 L1406.8,1155.2 L1406.4,1155.2 L1377.8,1058.4 L1331.2,1058.4 L1301.4,1198 L1336.6,1198 Z" id="MUSKETEERSONAMISSION"></path>
        </g>
    </g>
</svg>