<svg xmlns="http://www.w3.org/2000/svg" viewBox="0 0 326.27 353.74"><defs><style>.cls-2{fill:#087eb4}.cls-3{fill:#ffc808}.cls-4{fill:#eb95ae;opacity:.2;mix-blend-mode:multiply}.cls-5,.cls-9{fill:#daeef6}.cls-5{opacity:.5}.cls-7{fill:#fff}.cls-10{fill:#12365a}</style></defs><g style="isolation:isolate"><g id="Layer_1" data-name="Layer 1"><path class="cls-2" d="M154.12 335.9s-133.91-9.83-150-75.13S23.69 186.58 35.87 150-7.22 91.85 29.78 42.08s91.56-50.63 114.55-27.19 49.5-14.33 92.17 6.94 53.13 64.25 39.63 97.82 41.87 65.67 48.78 103.73-55.69 129.3-170.79 112.52z"/><path class="cls-3" d="M18.43 353.74h80.25l6.66-17.87a25.31 25.31 0 0113.35-14.21 63.84 63.84 0 0021.22-15.87 146.91 146.91 0 0022.58-34.23l-49.73-.25s4.48-27.74-20.24-64.59a20.78 20.78 0 01-3.44-13.4l2.34-26.88s16.8-18.72 6.5-41.94c0 0-9.86-13.61-13.77-8.63 0 0-29.77 70.7-32.48 81.21S45.35 214.2 49 247.23a199.5 199.5 0 011.29 22 77.93 77.93 0 01-7.54 33.28z"/><path class="cls-4" d="M93.28 307.89c-7.45-8.25-17.8-6.95-28.68-10.71S50.23 266.3 50.23 266.3v3a77.93 77.93 0 01-7.54 33.28l-24.26 51.16h80.25l6.66-17.87a25.31 25.31 0 0113.35-14.21 62.31 62.31 0 0017.82-12.32c-22.1 9.27-35.78 6.79-43.23-1.45z"/><path class="cls-5" d="M268.88 123a2.77 2.77 0 00-3.4-2 4.06 4.06 0 00-3.69-2.35 4.37 4.37 0 00-1.21.18 5 5 0 00-9 .88 3.35 3.35 0 00-1.67-.43 3.45 3.45 0 00-3.45 3.43v.34zM236.5 42a7.22 7.22 0 00-7-5.59 7.41 7.41 0 00-1.83.24A10.65 10.65 0 00214.83 31a13.13 13.13 0 00-23.56 2.28 9 9 0 00-13.37 7.84v.87zM77.63 97a6 6 0 00-5.89-4.68 5.94 5.94 0 00-1.53.2 8.92 8.92 0 00-10.71-4.69 11 11 0 00-19.72 1.91 7.53 7.53 0 00-11.19 6.56v.73z"/><path class="cls-3" d="M207.36 68.74s17-11.35 20.88-3.87-22.08 33.92-22.08 33.92zm0 49.43s17-11.34 20.88-3.87-22.08 33.93-22.08 33.93zm0 33.68s17-11.34 20.88-3.87-22.08 33.93-22.08 33.93z"/><path d="M195.62 56h-93.31a12.56 12.56 0 00-12.59 12.57v190.19a12.57 12.57 0 0012.59 12.55h93.31a12.56 12.56 0 0012.58-12.55V68.57A12.56 12.56 0 00195.62 56z" fill="#0c233f"/><path class="cls-4" d="M98.23 215.94s-16.88 41.21-15.24 49 11.87 18.21 37 14.73a387.22 387.22 0 0042.5-8.11s1-55.61 0-58.43-46.23-22.84-48-22.84-16.26 25.65-16.26 25.65z"/><path class="cls-7" d="M95.82 73.13H202.1v181.08H95.82zm74.83-5.69h-43.2a1.14 1.14 0 01-1.14-1.14 1.14 1.14 0 011.14-1.13h43.2a1.14 1.14 0 011.14 1.13 1.14 1.14 0 01-1.14 1.14z"/><path class="cls-3" d="M87.61 182.66a7.9 7.9 0 002.09 3.55l1.72-19.77s12.36-13.77 9.37-32.34a27.7 27.7 0 00-9-16.46c-2.77-2.43-5.81-4-7.6-1.77 0 0-14 33.25-23.67 57.53z"/><ellipse cx="148.9" cy="262.94" rx="5.22" ry="5.21" opacity=".3" fill="#daeef6"/><path class="cls-9" d="M150.46 265.1h-3.11a.61.61 0 01-.62-.61v-3.11a.61.61 0 01.62-.61h3.11a.61.61 0 01.62.61v3.11a.61.61 0 01-.62.61zm-3.11-4.17a.45.45 0 00-.45.45v3.11a.45.45 0 00.45.45h3.11a.45.45 0 00.45-.45v-3.11a.45.45 0 00-.45-.45z"/><path class="cls-10" d="M95.82 243.5H202.1v10.71H95.82zm0-170.37H202.1v9.61H95.82z"/><path class="cls-4" d="M86.67 135.4c3.87-1.78 5.89-11.81 6.61-16.32-3.11-3.12-7-5.92-9.13-3.21 0 0-3.08 7.32-7.35 17.6 2.92 1.62 6.98 3.26 9.87 1.93z"/><rect class="cls-9" x="105.05" y="126.09" width="87.83" height="59.47" rx="12"/><path d="M108.74 176.06V138a9.14 9.14 0 019.12-9.12h16.67m54.93 11.32v32.9a9.15 9.15 0 01-9.13 9.12" fill="none" stroke="#fff" stroke-linecap="round" stroke-linejoin="round" stroke-width="1.52"/><path class="cls-10" d="M150.41 160.69c1.07 1 2.14 2 3.19 3s1.11 1.07 0 2.15l-2.69 2.57c-.16.15-.34.28-.69.56v-2.4c0-.46-.18-.62-.64-.65-3.05-.14-6.11-.16-9.14-.51-4.5-.51-8.95-1.31-13-3.65a7 7 0 01-1.42-1.06c-1.67-1.59-1.54-3.53.25-5a13.57 13.57 0 013.28-1.94 17.78 17.78 0 011.85-.67 5.29 5.29 0 011.71-.37.51.51 0 01.22.06c.19.11.11.43 0 .54a.73.73 0 01-.32.15 18 18 0 00-4.6 2.34 2.08 2.08 0 00-.17 3.29 11.34 11.34 0 004.9 2.53 56.16 56.16 0 0016.27 2c.62 0 .82-.24.79-.83s0-1.33 0-2zm11.7-8.35v2a3.83 3.83 0 01-3.66 4 3.88 3.88 0 01-4.34-3.39 27.91 27.91 0 01.08-5.25c.19-1.81 1.58-2.88 3.61-3.12a3.79 3.79 0 013.86 2.16 15.81 15.81 0 01.45 3.64zm-2.17.1c0-.7.05-1.39 0-2.09a1.85 1.85 0 00-1.83-1.89 2 2 0 00-1.85 2.08v3.71a1.94 1.94 0 001.78 2.13 2 2 0 001.93-2c.03-.65-.03-1.3-.03-1.94z"/><path class="cls-10" d="M157.42 165.47h-.23c-.6.06-.67-.46-.62-.95a4.28 4.28 0 000-.62c0-.47.14-.67.64-.75 2.19-.37 4.39-.71 6.54-1.24a12.11 12.11 0 005.81-2.7c1.17-1.13 1.22-2.51-.1-3.43a19.15 19.15 0 00-4.55-2.32.69.69 0 01-.4-.28c-.3-.57.68-.51 1-.4 1.71.68 3.44 1.36 5.1 2.17a5.79 5.79 0 011.74 1.5 2.8 2.8 0 01-.14 4 11.91 11.91 0 01-4.62 2.75 39.88 39.88 0 01-10.17 2.27zM150.88 147l-2.26 3.24c.53 0 .93.07 1.32.12a3.71 3.71 0 013 4.46 3.94 3.94 0 01-3.21 3.38 4.15 4.15 0 01-4.34-1.39 4.69 4.69 0 01-.13-5.31c.9-1.38 1.88-2.72 2.78-4.1a1.25 1.25 0 011.27-.65h1.44zm-.09 7.28a2.11 2.11 0 00-2-2.09 2.07 2.07 0 00-2.09 2.14 2 2 0 104.07-.05zm-9.12-2.28a2.9 2.9 0 00.33.24 2.78 2.78 0 011.47 3.06 3.28 3.28 0 01-2.19 2.69 4.52 4.52 0 01-4.3-.41 3.26 3.26 0 01-1.34-2.18.58.58 0 01.07-.43c.3-.34 2 0 2.21.37a1.91 1.91 0 002 1.05 1.73 1.73 0 001.4-1.47c.18-1.06-.69-2-2.05-2-.69 0-.9-.23-.86-.91 0-.48.17-.65.66-.72 1.06-.15 1.56-.69 1.58-1.5a1.19 1.19 0 00-.93-1.27 1.11 1.11 0 00-1.31.57 1.76 1.76 0 01-2 .57.72.72 0 01-.23-.62 3.35 3.35 0 013.44-2.54c2.19.05 3.63 1.63 3.15 3.63a7.28 7.28 0 01-1.1 1.87zm25.42-4.31a2.1 2.1 0 01-2.16 2.15 2.19 2.19 0 01-2.09-2.08 2.11 2.11 0 012.1-2.21 2 2 0 012.15 2.14zm-2.09 1.25a1.21 1.21 0 001.15-1.21 1.18 1.18 0 00-1.1-1.25 1.16 1.16 0 00-1.23 1.2 1.2 1.2 0 001.18 1.26z"/><path class="cls-3" d="M184.13 192.39s-14.36 1.2-14.86 5 .6 10.51 14.15 11.81h14s-4.2-11.61-4-12-9.29-4.81-9.29-4.81z"/><path class="cls-3" d="M161.1 249.14a3.87 3.87 0 00-1.52 5.38c6.6 11.36 32.87 56.51 35.24 60.18 2.71 4.21 9.33 14.12 31.31 19.22s31 19.82 31 19.82h67.76s-16-25.22-29.21-90.69c0 0-10.24-54.36-29.51-52.56 0 0-11.75-12.31-23.19-9.91 0 0-21.68-12.91-34-12.91l-29.66-35a8.59 8.59 0 00-11.71-1.38 5.6 5.6 0 00-2.29 3.6c-.91 5.71 6.62 20.12 18.67 37.54s41.85 72.68 28.9 97a130.7 130.7 0 01-24.69-25.83c-9.59-13.28-20.86-17.76-27.1-14.46z"/><path d="M209.08 187.68a124.78 124.78 0 0111.11 10.83 135.33 135.33 0 019.81 12.05 95.47 95.47 0 018.09 13.28 49.89 49.89 0 014.9 14.72h-.09a56.62 56.62 0 00-5.44-14.41 108.07 108.07 0 00-8.19-13.09c-3-4.19-6.24-8.21-9.62-12.1-3.18-3.66-7.18-7.94-10.63-11.23zm33.72 12.81a33.3 33.3 0 018.59 6.49A41.93 41.93 0 01262 225.65a40.57 40.57 0 011.36 10.65h-.09a52.91 52.91 0 00-2-10.45 47.36 47.36 0 00-10.42-18.39 39.76 39.76 0 00-8.1-6.89zm23.2 9.76a29.83 29.83 0 017.07 8.46 37.31 37.31 0 015 17.58h-.09a51.16 51.16 0 00-5.65-17.19 40 40 0 00-6.38-8.81z" fill="#eb95ae"/><path class="cls-4" d="M174.77 263.12c.6-3-3-7.86-6.17-11.5a7.52 7.52 0 00-8-2.17 3.88 3.88 0 00-1 5.07l8.74 15c2.8-1.42 5.88-3.59 6.43-6.4zm2.85-96.69c1.71-.34 9.48-2.92 9-4.33l-7.67-9a8.74 8.74 0 00-5.84-3h-.4a3.87 3.87 0 00-4.11 3.07c-.55 2.74 4 9.4 6 12.17a3 3 0 003.02 1.09z"/><path class="cls-10" d="M41.55 306.52c8.49 5.2 35.83 20.76 64.1 24.08 1.65.19 2.82 1.7 2.33 3L103 346.8a2.18 2.18 0 01-2.41 1.25c-8.33-1-42.71-6.17-66.89-24.82a2.17 2.17 0 01-.86-2.43l5-13.46c.55-1.26 2.33-1.67 3.71-.82z"/><path class="cls-2" d="M39.26 319.2l-.47-.17a.75.75 0 01-.44-1l1.65-4.41a.75.75 0 011-.44l.47.17a.76.76 0 01.45 1l-1.66 4.44a.76.76 0 01-1 .41zm4.85 3.04a1 1 0 01-.59-1.29L45 317a1 1 0 011.3-.59 1 1 0 01.59 1.29l-1.48 4a1 1 0 01-1.3.54zm5.09 3.11a1 1 0 01-.59-1.3l1.49-4a1 1 0 011.29-.59 1 1 0 01.6 1.3l-1.49 4a1 1 0 01-1.3.59zm5.24 2.52a1 1 0 01-.59-1.29l1.49-4a1 1 0 011.29-.59 1 1 0 01.6 1.29l-1.49 4a1 1 0 01-1.3.59zm5.16 2.93a1 1 0 01-.59-1.29l1.48-4a1 1 0 011.3-.59 1 1 0 01.59 1.3l-1.48 4a1 1 0 01-1.3.58zm5.4 2.33a1 1 0 01-.59-1.29l1.49-4a1 1 0 011.29-.59 1 1 0 01.6 1.29l-1.49 4a1 1 0 01-1.3.59zm5.71 2.13l-.47-.17a.76.76 0 01-.45-1l1.66-4.44a.76.76 0 011-.44l.47.17a.75.75 0 01.44 1l-1.66 4.44a.75.75 0 01-.99.44zm5.36 1.68a1 1 0 01-.59-1.3l1.48-4a1 1 0 011.3-.59 1 1 0 01.59 1.3l-1.49 4a1 1 0 01-1.29.59zm6.06 1.24l-.47-.18a.74.74 0 01-.45-1l1.66-4.44a.76.76 0 011-.44l.47.18a.75.75 0 01.44 1l-1.66 4.43a.76.76 0 01-.99.45zm5.66 1.56l-.47-.18a.75.75 0 01-.44-1l1.66-4.43a.76.76 0 011-.45l.47.18a.74.74 0 01.45 1l-1.66 4.44a.76.76 0 01-1.01.44zm5.66.9a1 1 0 01-.6-1.3l1.49-4a1 1 0 011.3-.59 1 1 0 01.59 1.3l-1.49 4a1 1 0 01-1.29.59zm6.12 1.05l-.47-.18a.75.75 0 01-.44-1l1.66-4.44a.75.75 0 011-.44l.48.17a.76.76 0 01.44 1l-1.66 4.43a.77.77 0 01-1.01.46z"/><path class="cls-2" d="M58.33 337.06V337a1.31 1.31 0 01-.27-.06l-6.69-2.49a1.34 1.34 0 01-.72-1.74l6-16.11a1.34 1.34 0 011.68-.85l6.69 2.49a1.25 1.25 0 01.76.88c.52.23 1.05.46 1.59.68a2.88 2.88 0 00-1.76-3.13L59 314.18a3 3 0 00-3.73 1.87l-6 16.12a3 3 0 001.54 3.83l6.69 2.49a2.81 2.81 0 002.89-.62c-.69-.25-1.39-.52-2.06-.81z"/><path class="cls-7" d="M56.86 324.28L54 323.19a1.09 1.09 0 00-.76 2l2.91 1.08z"/><path class="cls-4" d="M257.15 353.74h67.76s-10.47-16.54-21.48-57.59c-4.84 30.23-31.51 28.49-42.09 30.16-12.19 1.93-59.5-7.9-66.13-11 2.95 4.48 9.94 13.74 30.92 18.61 21.99 5.08 31.02 19.82 31.02 19.82zM187.56 198c13.28 21.29 37.12 70.19 25.32 91.53l7.83 7.7s19.78-21.85-11.69-70A323.41 323.41 0 00187.56 198z"/><path class="cls-2" d="M4.16 136c-2.76-13.91 18.05-18.59 21.39-4.81a20.72 20.72 0 01.56 4.19C26.76 152 16.71 170 6 167s-4.54-14.35-1.3-21.14c1.54-3.2.17-6.25-.54-9.86zm302.9-30.91c-2.67-1.14-6-.82-10.08 1.81-3.47 2.23-5.75 6-7 9.92-5.24 16.47-1.5 44.47 17.33 51 7.59 2.64 15.8.61 18.53-7.52 2.08-6.2-3.72-11.55-5.77-16.86-4.3-11.13 1.04-32.34-13.01-38.35z"/><path class="cls-5" d="M228.63 103.5a5.76 5.76 0 017-4.24 8.42 8.42 0 017.63-4.85 8.66 8.66 0 012.51.38 10.4 10.4 0 0118.66 1.81 7.14 7.14 0 0110.59 6.21v.69zM75.94 24.9a4.1 4.1 0 014-3.17 4.4 4.4 0 011 .13 6 6 0 015.46-3.47 6.27 6.27 0 011.8.27A7.44 7.44 0 01101.58 20a5.11 5.11 0 017.58 4.44 4.07 4.07 0 010 .5z"/><path class="cls-7" d="M251.53 175.13s-.7 6.86-6.13 7.33c5.43.48 6.13 7.34 6.13 7.34s.69-6.86 6.13-7.34c-5.44-.46-6.13-7.33-6.13-7.33zM242 66.41s-.5 4.93-4.4 5.27C241.47 72 242 77 242 77s.5-4.93 4.4-5.27c-3.93-.39-4.4-5.32-4.4-5.32zM73.08 40s-.32 3.09-2.77 3.31c2.45.21 2.77 3.31 2.77 3.31s.31-3.1 2.76-3.31c-2.45-.2-2.76-3.31-2.76-3.31zm-19.97 84.4s-.7 6.86-6.13 7.33c5.43.48 6.13 7.34 6.13 7.34s.7-6.86 6.13-7.34c-5.43-.47-6.13-7.33-6.13-7.33zm212.79 31.74s-.47 4.54-4.06 4.85c3.59.31 4.06 4.86 4.06 4.86s.46-4.55 4.05-4.86c-3.59-.31-4.05-4.85-4.05-4.85zM254.43 53.28s-.25 2.47-2.21 2.64c2 .18 2.21 2.65 2.21 2.65s.25-2.47 2.21-2.65c-1.96-.17-2.21-2.64-2.21-2.64zM64.54 108.34s-.47 4.54-4.06 4.85c3.59.31 4.06 4.86 4.06 4.86s.46-4.55 4-4.86c-3.54-.31-4-4.85-4-4.85zm26.04-74.88s-.25 2.37-2.13 2.54c1.88.16 2.13 2.54 2.13 2.54s.24-2.38 2.12-2.54c-1.88-.17-2.12-2.54-2.12-2.54zM244.9 142.5s-.21 2-1.81 2.17c1.6.14 1.81 2.18 1.81 2.18s.21-2 1.82-2.18c-1.61-.14-1.82-2.17-1.82-2.17zm-186.97 8.7s-.2 2-1.81 2.17c1.61.14 1.81 2.17 1.81 2.17s.21-2 1.82-2.17c-1.61-.14-1.82-2.17-1.82-2.17zm18.88-94.56s-.41 4-3.59 4.29c3.18.28 3.59 4.29 3.59 4.29s.4-4 3.58-4.29c-3.18-.27-3.58-4.29-3.58-4.29z"/><path d="M155.25 87.42l-3-4.68 3.06-4.7 2-1.87h-16.52l2.05 1.83 3.06 4.71-3 4.68-2.05 1.89h16.48l-2-1.89zm-6.2 1l-1.28-.74 1.28-1.92 1.29 1.92-1.29.74zm0-8.64l-1.28-1.92 1.28-.74 1.29.74-1.29 1.92z" fill="#9ea1a2"/><path class="cls-7" d="M155 87.62l-3.18-4.88 3.2-4.91 1.47-1.35h-14.88l1.47 1.34 3.2 4.92-3.18 4.88-1.48 1.38h14.87L155 87.62zm-6.56-10.55l.6-.35.61.35 1.12.65-1.73 2.6-1.73-2.6 1.13-.65zm1.21 11.34l-.61.35-.6-.35-1.13-.65 1.73-2.6 1.73 2.6-1.12.65z"/><path fill="#0a2240" d="M151.45 82.74l3.33-5.11.91-.83h-5.87l1.42.81-2.19 3.28-2.18-3.28 1.42-.81h-5.87l.9.82 3.34 5.12-3.32 5.09-.92.85h5.87l-1.42-.82 2.18-3.27 2.19 3.27-1.42.82h5.87l-.92-.85-3.32-5.09z"/></g></g></svg>