<?xml version="1.0" encoding="utf-8"?>
<!-- Generator: Adobe Illustrator 23.1.1, SVG Export Plug-In . SVG Version: 6.00 Build 0)  -->
<svg version="1.1" id="Layer_1" xmlns="http://www.w3.org/2000/svg" xmlns:xlink="http://www.w3.org/1999/xlink" x="0px" y="0px"
	 viewBox="0 0 56 56" style="enable-background:new 0 0 56 56;" xml:space="preserve">
<style type="text/css">
	.st0{fill:#0C233F;}
	.st1{fill:#07719B;}
	.st2{fill:#0599CE;}
	.st3{fill:#EDF2FA;}
	.st4{fill-rule:evenodd;clip-rule:evenodd;fill:#EDF2FA;}
	.st5{fill:#0098CD;}
	.st6{fill:#232323;}
</style>
<g>
	<g>
		<g>
			<path class="st0" d="M28,1C13.1,1,1,13.1,1,28s12.1,27,27,27s27-12.1,27-27S42.9,1,28,1z"/>
		</g>
	</g>
</g>
<g>
	<g>
		<g>
			<path class="st1" d="M33.1,41H12c-0.6,0-1.1,0.1-1.6,0.3V18.6c-1.8,0.6-3,2.3-3,4.3v22.7c0,0,0,0,0,0c0,1.3,0.5,2.4,1.3,3.2
				c0.8,0.8,2,1.3,3.2,1.3h21.1c0.5,0,1-0.4,1-1V42C34.1,41.4,33.6,41,33.1,41z"/>
			<path class="st2" d="M12,41h21c0.5,0,1,0.4,1,1V19.3c0-0.3-0.1-0.5-0.3-0.7c-0.2-0.2-0.4-0.3-0.7-0.3H12c-0.6,0-1.1,0.1-1.6,0.3
				v22.7C11,41.1,11.5,41,12,41z"/>
		</g>
	</g>
	<path class="st3" d="M32.6,48.1v-5.2l0,0H12c-0.6,0-1.1,0.2-1.5,0.5c-0.6,0.4-1,1.1-1.1,1.8c0,0.1,0,0.2,0,0.3
		c0,1.4,1.2,2.5,2.6,2.5L32.6,48.1L32.6,48.1z"/>
</g>
<polygon class="st4" points="48.4,15.3 48.4,38.9 26.1,38.9 26.1,38.9 26.1,10.3 43.4,10.3 "/>
<g>
	<path class="st5" d="M28.3,12.5H43v3.8h3.8v9H28.3V12.5z M45.5,17.7h-3.8v-3.8H29.6V24h15.9V17.7z"/>
	<g>
		<path class="st6" d="M47.1,27.5H28v1.9h19.1V27.5z"/>
		<path class="st6" d="M28,31.3h1.9v1.9H28V31.3z"/>
		<path class="st6" d="M31.8,31.3h15.3v1.9H31.8V31.3z"/>
		<path class="st6" d="M28,35.2h19.1v1.9H28V35.2z"/>
	</g>
</g>
</svg>
