<svg width="1440" height="345" xmlns="http://www.w3.org/2000/svg"><path d="M89.6 142l24.2-114.4h.4l5.2 114.4h35.2l54.8-114.4h.4L184.4 142h36.4L250.4 2.4h-59.6L147 96.2h-.4l-2.2-93.8H86L55.6 142h34zm222.2 2.4c50.8 0 61.6-32.6 70.8-77l13.6-65h-37l-13.8 63.2c-4.8 22.4-8.6 51.2-32.6 51.2-13.2 0-19.8-8.8-19.8-20.2 0-3.2 1.2-8.6 2.6-15.2l16.8-79h-37.8L258.8 74c-1.4 6.4-3 15.4-3 26.4 0 32.8 24.6 44 56 44zm120.8 0c32.4 0 68.2-10 68.2-48.6 0-42.4-54.2-35-54.2-54.8 0-11.2 12-13.4 26.8-13.4 13.8 0 23.6 3 30.8 6.4l9-27.8C503.8 1.8 487.6 0 470.4 0c-30.6 0-62.2 10.8-62.2 46.8 0 39.4 54.2 31 54.2 53.4 0 14.4-18.2 16.6-29.8 16.6-12.2 0-27-3.2-34.4-8l-8.8 28.4c12.2 3.8 28.8 7.2 43.2 7.2zm117.8-2.4l13.4-63.4h.4l34.4 63.4h43l-41.2-71.8 66.4-67.8h-48.2l-50.4 57h-.4l12-57h-37.6L512.8 142h37.6zm207.8 0l5.4-26.4h-63.8l6.8-31.6h58l5.8-26.4h-58.2l6.4-28.8H780l5.4-26.4h-98.2l-30 139.6h101zm82.8 0l23.8-112h34.8l6-27.6H798.2l-6 27.6H827l-23.8 112H841zm150.6 0l5.4-26.4h-63.8L940 84h58l5.8-26.4h-58.2l6.4-28.8h61.4l5.4-26.4h-98.2l-30 139.6h101zm122.2 0l5.4-26.4h-63.8l6.8-31.6h58l5.8-26.4h-58.2l6.4-28.8h61.4l5.4-26.4h-98.2l-30 139.6h101zm58.6 0l11.2-55.2h4c16.8 0 18 1.4 21.6 19.6l7.2 35.6h37.2l-10-43c-2-9-5.6-23.8-16.6-24.8v-.4c21.4-2.6 40.6-11.2 40.6-35.8 0-34.6-32-35.4-58.6-35.6h-44.6L1135 142h37.4zm29.2-81.6H1189l6.4-31.6h17.8c11.2.2 17.2 4.4 17.2 14.4 0 13.2-12.6 17.2-28.8 17.2zm108.8 84c32.4 0 68.2-10 68.2-48.6 0-42.4-54.2-35-54.2-54.8 0-11.2 12-13.4 26.8-13.4 13.8 0 23.6 3 30.8 6.4l9-27.8c-9.4-4.4-25.6-6.2-42.8-6.2-30.6 0-62.2 10.8-62.2 46.8 0 39.4 54.2 31 54.2 53.4 0 14.4-18.2 16.6-29.8 16.6-12.2 0-27-3.2-34.4-8l-8.8 28.4c12.2 3.8 28.8 7.2 43.2 7.2zM60.6 344.4c53.8 0 81.6-34.6 81.6-87.4 0-28.8-16.6-57-62-57-53.8 0-81.6 34.6-81.6 87.6 0 28.6 16.6 56.8 62 56.8zm2.4-27.6c-19.4 0-26-14.6-26-32.2 0-23.6 12-57 40.8-57 19.4 0 26 14.8 26 32.4 0 23.4-12 56.8-40.8 56.8zM181 342l19.4-96.6h.4L230 342h46.4L306 202.4h-35.2l-19.6 96.8h-.4l-28.6-96.8h-46.6L145.8 342H181zm211.2 0l16.6-29.8H463l3.8 29.8h37.6l-22.8-139.6h-46.8l-83 139.6h40.4zm67.2-56.2h-36l29.6-54.6h.4l6 54.6zM612 342l24.2-114.4h.4l5.2 114.4H677l54.8-114.4h.4L706.8 342h36.4l29.6-139.6h-59.6l-43.8 93.8h-.4l-2.2-93.8h-58.4L578 342h34zm195.8 0l29-139.6h-37.6l-29 139.6h37.6zm69.4 2.4c32.4 0 68.2-10 68.2-48.6 0-42.4-54.2-35-54.2-54.8 0-11.2 12-13.4 26.8-13.4 13.8 0 23.6 3 30.8 6.4l9-27.8c-9.4-4.4-25.6-6.2-42.8-6.2-30.6 0-62.2 10.8-62.2 46.8 0 39.4 54.2 31 54.2 53.4 0 14.4-18.2 16.6-29.8 16.6-12.2 0-27-3.2-34.4-8l-8.8 28.4c12.2 3.8 28.8 7.2 43.2 7.2zm122.2 0c32.4 0 68.2-10 68.2-48.6 0-42.4-54.2-35-54.2-54.8 0-11.2 12-13.4 26.8-13.4 13.8 0 23.6 3 30.8 6.4l9-27.8c-9.4-4.4-25.6-6.2-42.8-6.2-30.6 0-62.2 10.8-62.2 46.8 0 39.4 54.2 31 54.2 53.4 0 14.4-18.2 16.6-29.8 16.6-12.2 0-27-3.2-34.4-8l-8.8 28.4c12.2 3.8 28.8 7.2 43.2 7.2zm119.4-2.4l29-139.6h-37.6l-29 139.6h37.6zm97.4 2.4c53.8 0 81.6-34.6 81.6-87.4 0-28.8-16.6-57-62-57-53.8 0-81.6 34.6-81.6 87.6 0 28.6 16.6 56.8 62 56.8zm2.4-27.6c-19.4 0-26-14.6-26-32.2 0-23.6 12-57 40.8-57 19.4 0 26 14.8 26 32.4 0 23.4-12 56.8-40.8 56.8zm118 25.2l19.4-96.6h.4l29.2 96.6h46.4l29.6-139.6h-35.2l-19.6 96.8h-.4l-28.6-96.8h-46.6L1301.4 342h35.2z" fill="#F0F2F3" opacity=".542"/></svg>