<svg xmlns="http://www.w3.org/2000/svg"><defs> <polygon id="minus-path-1" points="0 -1.83882392e-15 33 -1.83882392e-15 33 33 0 33"/>  <polygon id="plus-path-1" points="0 -1.83882392e-15 33 -1.83882392e-15 33 33 0 33"/> </defs><symbol viewBox="0 0 24 24" id="xu-close">  <g id="close-Page-1" stroke-width="1" fill-rule="evenodd"> <g id="close-Navigation" transform="translate(-1363.000000, -30.000000)"> <g id="close-Group-3" transform="translate(1363.000000, 30.000000)"> <polygon id="close-Fill-1" points="0 21.9201 1.413 23.3331 23.333 1.4131 21.919 0.0001"/> <polygon id="close-Fill-2" points="0 1.4127 21.919 23.3327 23.333 21.9197 1.413 0.0007"/> </g> </g> </g> </symbol><symbol viewBox="0 0 46 45" id="xu-facebook">  <g id="facebook-Page-1" stroke="none" stroke-width="1" fill="none" fill-rule="evenodd"> <g id="facebook-Desktop-HD" transform="translate(-569.000000, -3707.000000)"> <g id="facebook-FOOTER" transform="translate(0.000000, 3383.000000)"> <g id="facebook-Social-Icons" transform="translate(570.000000, 323.866000)"> <g id="facebook-Facebook"> <path d="M44,22.5106 C44,34.6606 34.15,44.5106 22,44.5106 C9.85,44.5106 0,34.6606 0,22.5106 C0,10.3606 9.85,0.5106 22,0.5106 C34.15,0.5106 44,10.3606 44,22.5106" id="facebook-Fill-54" fill="#13355A"/> <path d="M44,22.5106 C44,34.6606 34.15,44.5106 22,44.5106 C9.85,44.5106 0,34.6606 0,22.5106 C0,10.3606 9.85,0.5106 22,0.5106 C34.15,0.5106 44,10.3606 44,22.5106 Z" id="facebook-Stroke-55" stroke="#0098CD" stroke-width="0.715"/> <path d="M23.2637,19.1268 L23.2637,17.7728 C23.2637,17.1218 23.6937,16.9668 24.0057,16.9668 L25.9007,16.9668 L25.9007,14.0728 L23.2907,14.0728 C20.3887,14.0728 19.7387,16.2148 19.7387,17.6068 L19.7387,19.1268 L18.0537,19.1268 L18.0537,21.1688 L18.0537,22.5058 L19.7567,22.5058 L19.7567,30.9478 L23.1357,30.9478 L23.1357,22.5058 L25.6357,22.5058 L25.7447,21.1778 L25.9467,19.1268 L23.2637,19.1268 Z" id="facebook-Fill-56" fill="#FEFEFE"/> </g> </g> </g> </g> </g> </symbol><symbol viewBox="0 0 32 16" id="xu-hamburger">  <polygon points="0.918 1.90816 31.918 1.90816 31.918 0.30976 0.918 0.30976"/> <polygon points="0.918 15.77616 31.918 15.77616 31.918 14.17776 0.918 14.17776"/> <polygon points="0.918 8.84176 31.918 8.84176 31.918 7.24336 0.918 7.24336"/> </symbol><symbol viewBox="0 0 46 45" id="xu-instagram">  <g id="instagram-Page-1" stroke="none" stroke-width="1" fill="none" fill-rule="evenodd"> <g id="instagram-Desktop-HD" transform="translate(-825.000000, -3707.000000)"> <g id="instagram-FOOTER" transform="translate(0.000000, 3383.000000)"> <g id="instagram-Social-Icons" transform="translate(570.000000, 323.866000)"> <g id="instagram-Instagram" transform="translate(256.000000, 0.000000)"> <path d="M44,22.5106 C44,34.6606 34.15,44.5106 22,44.5106 C9.85,44.5106 0,34.6606 0,22.5106 C0,10.3606 9.85,0.5106 22,0.5106 C34.15,0.5106 44,10.3606 44,22.5106" id="instagram-Fill-66" fill="#13355A"/> <path d="M44,22.5106 C44,34.6606 34.15,44.5106 22,44.5106 C9.85,44.5106 0,34.6606 0,22.5106 C0,10.3606 9.85,0.5106 22,0.5106 C34.15,0.5106 44,10.3606 44,22.5106 Z" id="instagram-Stroke-67" stroke="#0098CD" stroke-width="0.715"/> <path d="M26.9385,22.5057 C26.9385,19.7807 24.7295,17.5637 21.9965,17.5637 C19.2705,17.5637 17.0535,19.7807 17.0535,22.5057 C17.0535,25.2397 19.2705,27.4487 21.9965,27.4487 C24.7295,27.4487 26.9385,25.2397 26.9385,22.5057 M26.8445,16.8957 C26.4055,16.8957 26.0495,17.2507 26.0495,17.6907 C26.0495,18.1307 26.4055,18.4857 26.8445,18.4857 C27.2855,18.4857 27.6405,18.1307 27.6405,17.6907 C27.6405,17.2507 27.2855,16.8957 26.8445,16.8957 M17.9595,15.7527 L26.0415,15.7527 C27.5395,15.7527 28.7575,16.9707 28.7575,18.4697 L28.7575,26.5517 C28.7575,28.0497 27.5395,29.2687 26.0415,29.2687 L17.9595,29.2687 C16.4605,29.2687 15.2425,28.0497 15.2425,26.5517 L15.2425,18.4697 C15.2425,16.9707 16.4605,15.7527 17.9595,15.7527 M26.0415,14.8467 L17.9595,14.8467 C15.9695,14.8467 14.3365,16.4717 14.3365,18.4697 L14.3365,26.5517 C14.3365,28.5397 15.9695,30.1737 17.9595,30.1737 L26.0415,30.1737 C28.0395,30.1737 29.6635,28.5397 29.6635,26.5517 L29.6635,18.4697 C29.6635,16.4717 28.0395,14.8467 26.0415,14.8467 M18.0855,22.5057 C18.0855,20.3477 19.8375,18.5877 21.9965,18.5877 C24.1625,18.5877 25.9145,20.3477 25.9145,22.5057 C25.9145,24.6727 24.1625,26.4247 21.9965,26.4247 C19.8375,26.4247 18.0855,24.6727 18.0855,22.5057" id="instagram-Fill-68" fill="#FEFEFE"/> </g> </g> </g> </g> </g> </symbol><symbol viewBox="0 0 46 45" id="xu-linkedin">  <g id="linkedin-Page-1" stroke="none" stroke-width="1" fill="none" fill-rule="evenodd"> <g id="linkedin-Desktop-HD" transform="translate(-697.000000, -3707.000000)"> <g id="linkedin-FOOTER" transform="translate(0.000000, 3383.000000)"> <g id="linkedin-Social-Icons" transform="translate(570.000000, 323.866000)"> <g id="linkedin-LinkedIn" transform="translate(128.000000, 0.000000)"> <path d="M44,22.5106 C44,34.6606 34.15,44.5106 22,44.5106 C9.85,44.5106 0,34.6606 0,22.5106 C0,10.3606 9.85,0.5106 22,0.5106 C34.15,0.5106 44,10.3606 44,22.5106" id="linkedin-Fill-60" fill="#13355A"/> <path d="M44,22.5106 C44,34.6606 34.15,44.5106 22,44.5106 C9.85,44.5106 0,34.6606 0,22.5106 C0,10.3606 9.85,0.5106 22,0.5106 C34.15,0.5106 44,10.3606 44,22.5106 Z" id="linkedin-Stroke-61" stroke="#0098CD" stroke-width="0.715"/> <path d="M16.542,15.3925 C15.625,15.3925 14.882,16.1345 14.882,17.0525 C14.882,17.9695 15.625,18.7115 16.542,18.7115 C17.459,18.7115 18.201,17.9695 18.201,17.0525 C18.201,16.1345 17.459,15.3925 16.542,15.3925 Z M29.039,23.0515 C28.82,21.2525 28,20.1345 25.572,20.1345 C24.148,20.1345 23.188,20.6595 22.786,21.4185 L22.742,21.4185 L22.742,20.1345 L20.096,20.1345 L20.096,21.9595 L20.096,29.6275 L22.865,29.6275 L22.865,24.9205 C22.865,23.6805 23.109,22.4845 24.629,22.4845 C26.157,22.4845 26.271,23.8995 26.271,25.0075 L26.271,29.6275 L29.117,29.6275 L29.117,24.4135 C29.117,23.9245 29.091,23.4715 29.039,23.0515 Z M14.882,22.6595 L14.882,29.6275 L18.201,29.6275 L18.201,22.0915 L18.201,20.1345 L14.882,20.1345 L14.882,22.6595 Z" id="linkedin-Fill-62" fill="#FEFEFE"/> </g> </g> </g> </g> </g> </symbol><symbol viewBox="0 0 121.2 96.5" id="xu-logo">  <path d="M51.2,84.3l9.4-14.1L70,84.3l-9.4,5.4Zm0-72.1,9.4-5.4L70,12.2,60.6,26.3ZM0,0,14.9,13.7,37.5,48.2,15.1,82.6.1,96.5h121l-15-13.9L83.7,48.2l22.5-34.4L121.2,0Z" fill="#9c9799"/> <path d="M65,89.8l-4.4,2.6-4.5-2.6-8.2-4.7L60.6,66,73.3,85.1ZM56.1,6.6l4.5-2.5L65,6.6l8.3,4.8L60.6,30.5,47.9,11.4Zm48.2,77.5L81,48.2l23.4-36,10.8-9.9H5.9l10.8,9.9,23.5,36L16.9,84.1,6,94.2H115.2Z" fill="#001641"/> <path d="M78.2,48.2l24.4-37.5,6.7-6.1H66.2l10.4,6-16,24-16-24L55,4.6H11.9l6.6,6.1L43,48.2,18.7,85.6l-6.8,6.3H55l-10.4-6,16-24.1,16,24.1-10.4,6h43.1l-6.8-6.3Z" fill="#fff"/> <path d="M108.2,77.7a4,4,0,1,1,4,4A4,4,0,0,1,108.2,77.7Zm7,0a3,3,0,1,0-3,3.2A3,3,0,0,0,115.2,77.7Zm-4.5-2.2h1.7c1.1,0,1.7.4,1.7,1.3s-.4,1.1-1.2,1.2l1.2,2h-.9L112,78.1h-.5V80h-.8Zm.8,1.9h.7c.5,0,.9-.1.9-.7s-.5-.6-.9-.6h-.7Z" fill="#9ea1a2"/> </symbol><symbol viewBox="0 0 33 33" id="xu-minus">   <g id="minus-Page-1" stroke="none" stroke-width="1" fill="none" fill-rule="evenodd"> <g id="minus-Navigation---Open" transform="translate(-1352.000000, -157.000000)"> <g id="minus-Minus-Button" transform="translate(1352.000000, 157.000000)"> <g id="minus-Plus-Button"> <g id="minus-Group-3"> <mask id="minus-mask-2" fill="white"> <use xlink:href="#minus-path-1"/> </mask>  <path d="M24.7186863,33 L8.28131372,33 C3.72659117,33 0,29.2734088 0,24.7186863 L0,8.28131372 C0,3.72659117 3.72659117,0 8.28131372,0 L24.7186863,0 C29.2739264,0 33,3.72659117 33,8.28131372 L33,24.7186863 C33,29.2734088 29.2739264,33 24.7186863,33" id="minus-Fill-1" fill="#13355A" mask="url(#minus-mask-2)"/> </g> <g id="minus-Group" transform="translate(9.000000, 16.000000)" fill="#FFFFFF"> <polygon id="minus-Fill-4" points="0 1 15 1 15 0 0 0"/> </g> </g> </g> </g> </g> </symbol><symbol viewBox="0 0 33 33" id="xu-plus">   <g id="plus-Page-1" stroke="none" stroke-width="1" fill="none" fill-rule="evenodd"> <g id="plus-Navigation" transform="translate(-1352.000000, -157.000000)"> <g id="plus-Plus-Button" transform="translate(1352.000000, 157.000000)"> <g> <g id="plus-Group-3"> <mask id="plus-mask-2" fill="white"> <use xlink:href="#plus-path-1"/> </mask>  <path d="M24.7186863,33 L8.28131372,33 C3.72659117,33 0,29.2734088 0,24.7186863 L0,8.28131372 C0,3.72659117 3.72659117,0 8.28131372,0 L24.7186863,0 C29.2739264,0 33,3.72659117 33,8.28131372 L33,24.7186863 C33,29.2734088 29.2739264,33 24.7186863,33" id="plus-Fill-1" fill="#13355A" mask="url(#plus-mask-2)"/> </g> <g id="plus-Group" transform="translate(9.000000, 9.000000)" fill="#FFFFFF"> <polygon id="plus-Fill-4" points="0 8 15 8 15 7 0 7"/> <polygon id="plus-Fill-6" points="7 15 8 15 8 0 7 0"/> </g> </g> </g> </g> </g> </symbol><symbol viewBox="0 0 15 15" id="xu-search"> <path d="M11.0146879,5.89935866 C11.0146879,8.54626958 8.79794048,10.6996813 6.07317924,10.6996813 C3.34797509,10.6996813 1.13167059,8.54626958 1.13167059,5.89935866 C1.13167059,3.25244773 3.34797509,1.09903597 6.07317924,1.09903597 C8.79794048,1.09903597 11.0146879,3.25244773 11.0146879,5.89935866 M14.4959336,13.7772746 L10.52129,9.91576202 C11.5705356,8.82120067 12.1463142,7.40308975 12.1463142,5.89935866 C12.1463142,2.64622252 9.42155294,0.00017210084 6.07317924,0.00017210084 C2.72436263,0.00017210084 4.42906574e-05,2.64622252 4.42906574e-05,5.89935866 C4.42906574e-05,9.15249479 2.72436263,11.7985452 6.07317924,11.7985452 C7.28142837,11.7985452 8.44095779,11.4573553 9.4388263,10.8106864 L13.4945218,14.7500746 C13.6260651,14.8782897 13.8014561,14.9488511 13.9879197,14.9488511 L13.9923488,14.9488511 C14.1796983,14.9475603 14.3568609,14.875278 14.4906187,14.7453418 C14.7665495,14.4772948 14.7692069,14.0431704 14.4959336,13.7772746"/> </symbol><symbol viewBox="0 0 46 45" id="xu-twitter">  <g id="twitter-Page-1" stroke="none" stroke-width="1" fill="none" fill-rule="evenodd"> <g id="twitter-Desktop-HD" transform="translate(-633.000000, -3707.000000)"> <g id="twitter-FOOTER" transform="translate(0.000000, 3383.000000)"> <g id="twitter-Social-Icons" transform="translate(570.000000, 323.866000)"> <g id="twitter-Twitter" transform="translate(64.000000, 0.000000)"> <path d="M44,22.5106 C44,34.6606 34.15,44.5106 22,44.5106 C9.85,44.5106 0,34.6606 0,22.5106 C0,10.3606 9.85,0.5106 22,0.5106 C34.15,0.5106 44,10.3606 44,22.5106" id="twitter-Fill-57" fill="#13355A"/> <path d="M44,22.5106 C44,34.6606 34.15,44.5106 22,44.5106 C9.85,44.5106 0,34.6606 0,22.5106 C0,10.3606 9.85,0.5106 22,0.5106 C34.15,0.5106 44,10.3606 44,22.5106 Z" id="twitter-Stroke-58" stroke="#0098CD" stroke-width="0.715"/> <path d="M30.2075,17.5028 C29.6105,17.7618 28.9615,17.9398 28.2755,18.0278 C28.9785,17.6098 29.5125,16.9688 29.7625,16.1858 C29.1125,16.5678 28.3825,16.8438 27.6175,16.9948 C27.0115,16.3458 26.1305,15.9448 25.1515,15.9448 C23.2995,15.9448 21.7865,17.4318 21.7865,19.2568 C21.7865,19.5238 21.8315,19.7738 21.8845,20.0138 C19.0805,19.8798 16.5965,18.5628 14.9405,16.5508 C14.6555,17.0488 14.4775,17.6098 14.4775,18.2148 C14.4775,19.3718 15.0825,20.3878 15.9735,20.9748 C15.4215,20.9658 14.9045,20.8148 14.4515,20.5658 L14.4515,20.6088 C14.4515,21.0368 14.5315,21.4288 14.6825,21.8028 C15.0925,22.8448 16.0265,23.6278 17.1575,23.8508 C16.8635,23.9308 16.5785,23.9748 16.2675,23.9748 C16.0535,23.9748 15.8395,23.9478 15.6345,23.9028 C16.0715,25.2208 17.3085,26.1828 18.7775,26.2178 C17.6205,27.1078 16.1785,27.6338 14.6025,27.6338 C14.3265,27.6338 14.0685,27.6148 13.7925,27.5888 C15.2875,28.5238 17.0595,29.0758 18.9555,29.0758 C24.2165,29.0758 27.4655,25.4348 28.3115,21.6508 C28.4625,20.9748 28.5335,20.3078 28.5335,19.6488 L28.5335,19.2208 C29.1835,18.7488 29.7625,18.1608 30.2075,17.5028" id="twitter-Fill-59" fill="#FEFEFE"/> </g> </g> </g> </g> </g> </symbol><symbol viewBox="0 0 357.8 97" id="xu-wordmark">  <path d="M0,0H2.4V96.5H0ZM45.5,82.9c0,9.2-4.7,14.1-12.8,14.1S20,92.1,20,82.9V63.7h4.7V82.3c0,6.3,2,10.6,8,10.6s8.1-4.3,8.1-10.6V63.7h4.7ZM83.6,63.7V90.1h-.1L69.1,63.7H62.7V96.5h4.7v-27h.1l14.8,27h6V63.7Zm22,0h4.7V96.5h-4.7Zm44.1,0L139.3,92.3h-.1l-10-28.6h-5.3l12.3,32.8h5.9l12.5-32.8Zm18.7,0V96.5h18.4V92.3H173.1V81.5h12.5V77.4H173.1V67.8h13.7V63.7Zm38.7,14.1h4c4.5,0,7.1-2,7.1-5.2s-2.2-4.8-6.5-4.8h-4.6Zm-4.7-14.1h8.1c6.5,0,12.7,1,12.7,8.9,0,3.9-3,6.8-6.8,7.4,1.5.6,2.2,1.3,3.2,3.3l6.2,13.1h-5.3l-5-11.4c-1.5-3.2-3.1-3.2-5.5-3.2h-2.9V96.4h-4.7V63.7Zm53.3,4.9a14.24,14.24,0,0,0-6.1-1.3c-2.6,0-5.7.9-5.7,4.3,0,6.3,14.1,4.9,14.1,15.7,0,6.9-5.4,9.7-12,9.7a21.54,21.54,0,0,1-6.7-1.3l.4-4.4a23.23,23.23,0,0,0,6.8,1.6c2.7,0,6.5-1.5,6.5-5.4,0-7.3-14.1-5.3-14.1-15.5,0-5.8,4.6-8.9,10.5-8.9a21,21,0,0,1,7,1.2l-.7,4.3Zm17.4-4.9h4.7V96.5h-4.7Zm18.4,0v4.1h10.2V96.5h4.7V67.8h10.2V63.7Zm60.8,0-9.5,14.7L333,63.7h-5.5l12.9,19V96.5h4.7V82.7l12.7-19Z" fill="#9c9799"/> <path d="M101.2,31.7,111,10l9.2,21.7Zm41.3,10.6-17.1-39a2.77,2.77,0,0,1-.3-1.3c0-.2,0-.4.4-.7L127.1,0H100.4l.7,1.1c.3.5.4.6.4.8s0,.3-.5,1.2L81.6,44.8a13.44,13.44,0,0,1-1.2,2.4l-.3-.3-.6-.6-.3-.4-.6-.7-.4-.3-.9-1.2s-7.9-9.9-15.4-19.5l14-16c3.5-4,5-5.5,7-6.9L84.8,0h-24l1.8,1.3c1.3.9,1.4,1.4,1.4,1.9a10,10,0,0,1-2.2,4.1L55,15.6,49.3,7.3a8.43,8.43,0,0,1-2-4c0-.6.2-1.3,1.7-1.9L48.7,0H20.1V1.4c4.6,1.8,7.2,4.1,11.7,9.5L44.9,27.5l-12.3,14c-4.5,5-6.8,6.6-12.8,9.4v1.3H44.1l.3-1.3c-1.8-.9-1.9-1.4-1.9-2.1s.3-1.7,2.2-3.8l7.1-8.7c3,3.8,5.2,6.5,5.1,6.5,2.6,3.3,3.1,4.9,3.1,5.7s-.2,1.4-1.6,2.5l-1.8,1.2h42L97.4,51c-1.6-1.6-2-2.4-2-4.2a7.92,7.92,0,0,1,1-4l.5-1.1h27.4l2.6,5.9a3.5,3.5,0,0,1-1.6,4.6h23l-.8-1.1a51.1,51.1,0,0,1-5-8.8M324.9,23.6H313.7V9.2h9.8a25.6,25.6,0,0,1,5.5.5,7.27,7.27,0,0,1,5.3,6.6c0,4.2-3.9,7.3-9.4,7.3m6,27.4-1.4,1.2h28.3L355.9,51c-2.5-1.8-3.3-2.6-6.4-7.7-5.7-9.4-6.9-11.2-10.1-12.9,7.6-2,11.9-7.3,11.9-14.9,0-5.7-2.6-10.5-7.2-12.9S327.3,0,323.7,0H292V1.4c3.2,1.5,4.3,3.9,4.3,9.3v31c0,5.1-.9,7.3-4.1,9.2v1.3h28l-2.3-1.3c-3.3-1.8-4.2-4-4.2-9.2V32.8h2.1c5.4,0,9.7,2.5,13.2,7.6,1.9,2.9,3.4,6.4,3.4,8.1s-.2,1.4-1.5,2.5M290,38l-1.1-.8a17.53,17.53,0,0,1-6.4,3.9A42.18,42.18,0,0,1,269.3,43H252.8V30.5h14.8c3.3,0,5.5-1.1,6.9-3.4l3.9-6.8,1.2-2.1-2.1,1.1a12,12,0,0,1-5.9,1.2H252.8V9.2h16.4a33.17,33.17,0,0,1,17.4,4.4l1.6,1-.6-1.8L285,4.2c0,.1-.1-.6-.1-.6a6.37,6.37,0,0,1-.2-.9,1.8,1.8,0,0,1,.7-1.5L286.6,0H231.4V1.3c3.3,2.4,4,4.1,4,9V41.8c0,5.3-1.1,7.6-4.2,9.1v1.3h56.3L286.1,51c-.8-.7-.9-1-.9-1.4s0-.2.4-1.2L290,38Zm-67.9,3.7V10.5c0-5.2,1.1-7.6,4.2-9.1V0H182.4l-.3,1.4a2.94,2.94,0,0,1,2.1,3.2c0,1.9-.9,4.8-2.7,9L170.3,38.4,158.4,10.3c-1.2-3-1.7-4.8-1.7-6.1s.3-1.8,2.1-2.9L161.2,0H132.1l1.7,1.3c1.7,1.2,3,3.2,5.3,7.9l18.2,39.6a4.42,4.42,0,0,1,.5,1.5c0,.1,0,.3-.6.6l-2.1,1.3H180L178.6,51c-.5-.5-.6-.7-.6-.9a11.28,11.28,0,0,1,.8-2.4L197.3,9.2a32.17,32.17,0,0,1,4.6-7.5c2.7,1.6,3.7,4,3.7,8.8V41.7c0,5.2-1.2,7.6-4.3,9.2v1.3h25V50.9c-3.1-1.6-4.2-4-4.2-9.2" fill="#fff"/> </symbol><symbol viewBox="0 0 46 45" id="xu-youtube">  <g id="youtube-Page-1" stroke="none" stroke-width="1" fill="none" fill-rule="evenodd"> <g id="youtube-Desktop-HD" transform="translate(-761.000000, -3707.000000)"> <g id="youtube-FOOTER" transform="translate(0.000000, 3383.000000)"> <g id="youtube-Social-Icons" transform="translate(570.000000, 323.866000)"> <g id="youtube-YouTube" transform="translate(192.000000, 0.000000)"> <path d="M44,22.5106 C44,34.6606 34.15,44.5106 22,44.5106 C9.85,44.5106 0,34.6606 0,22.5106 C0,10.3606 9.85,0.5106 22,0.5106 C34.15,0.5106 44,10.3606 44,22.5106" id="youtube-Fill-63" fill="#13355A"/> <path d="M44,22.5106 C44,34.6606 34.15,44.5106 22,44.5106 C9.85,44.5106 0,34.6606 0,22.5106 C0,10.3606 9.85,0.5106 22,0.5106 C34.15,0.5106 44,10.3606 44,22.5106 Z" id="youtube-Stroke-64" stroke="#0098CD" stroke-width="0.715"/> <path d="M25.0059,22.3104 L20.1439,24.9314 L20.1439,20.8974 L20.1439,19.6694 L22.3459,20.8694 L25.0059,22.3104 Z M30.8139,18.7634 C30.8139,18.7634 30.6289,17.4674 30.0919,16.9034 C29.4099,16.1624 28.6409,16.1524 28.2999,16.1034 C25.7859,15.9184 22.0149,15.9184 22.0149,15.9184 L21.9949,15.9184 C21.9949,15.9184 18.2349,15.9184 15.7199,16.1034 C15.3599,16.1524 14.5999,16.1624 13.9179,16.9034 C13.3819,17.4674 13.1969,18.7634 13.1969,18.7634 C13.1969,18.7634 13.0119,20.2844 13.0119,21.7844 L13.0119,21.9794 L13.0119,23.2164 C13.0119,24.7364 13.1969,26.2374 13.1969,26.2374 C13.1969,26.2374 13.3819,27.5334 13.9179,28.1084 C14.5999,28.8584 15.4959,28.8294 15.9049,28.9074 C17.3379,29.0534 22.0149,29.1024 22.0149,29.1024 C22.0149,29.1024 25.7859,29.0824 28.2999,28.9074 C28.6409,28.8584 29.4099,28.8584 30.0919,28.1084 C30.6289,27.5334 30.8139,26.2374 30.8139,26.2374 C30.8139,26.2374 30.9879,24.7364 30.9879,23.2164 L30.9879,22.0574 L30.9879,21.7844 C30.9879,20.2844 30.8139,18.7634 30.8139,18.7634 Z" id="youtube-Fill-65" fill="#FEFEFE"/> </g> </g> </g> </g> </g> </symbol></svg>