<svg version="1.1" id="Layer_1" xmlns="http://www.w3.org/2000/svg" xmlns:xlink="http://www.w3.org/1999/xlink" x="0" y="0" width="457.723" height="378.863" xml:space="preserve"><style>.st0{fill:#0c2340}.st22{fill:#09c}.st23{fill:#fff}.st24{fill:none}</style><path class="st0" d="M234 15.7h-2c-53.1.1-126.6 15.4-170.6 36v4c-.1 67.8.8 152.2 29.3 204 29.2 53.5 72.8 75 142.3 112 69.6-37 113.1-58.5 142.3-112 28.3-51.4 29.2-134.8 29.1-202.2v-5.8c-45-21.6-117.2-36-170.4-36z"/><g opacity=".8"><defs><path id="SVGID_1_" d="M398.5 76l-9.2 131-17.7 49.5-31.5 45.4-23.7 22-41 25-42.4 22.8-56.1-30.6-53.9-36.2L76.1 246 52.4 106z"/></defs><clipPath id="SVGID_2_"><use xlink:href="#SVGID_1_" overflow="visible"/></clipPath><path opacity=".2" clip-path="url(#SVGID_2_)" fill="#0899cd" d="M201.4 210.9L304.6 366H98.2z"/><defs><path id="SVGID_3_" d="M398.5 76l-9.2 131-17.7 49.5-31.5 45.4-23.7 22-41 25-42.4 22.8-56.1-30.6-53.9-36.2L76.1 246 52.4 106z"/></defs><clipPath id="SVGID_4_"><use xlink:href="#SVGID_3_" overflow="visible"/></clipPath><path opacity=".2" clip-path="url(#SVGID_4_)" fill="#0899cd" d="M305.1 210.9L408.2 366H201.9z"/><defs><path id="SVGID_5_" d="M398.5 76l-9.2 131-17.7 49.5-31.5 45.4-23.7 22-41 25-42.4 22.8-56.1-30.6-53.9-36.2L76.1 246 52.4 106z"/></defs><clipPath id="SVGID_6_"><use xlink:href="#SVGID_5_" overflow="visible"/></clipPath><path opacity=".2" clip-path="url(#SVGID_6_)" fill="#0899cd" d="M97.8 210.9L201 366H-5.4z"/><defs><path id="SVGID_7_" d="M398.5 76l-9.2 131-17.7 49.5-31.5 45.4-23.7 22-41 25-42.4 22.8-56.1-30.6-53.9-36.2L76.1 246 52.4 106z"/></defs><clipPath id="SVGID_8_"><use xlink:href="#SVGID_7_" overflow="visible"/></clipPath><path opacity=".2" clip-path="url(#SVGID_8_)" fill="#0899cd" d="M-5.8 210.9L97.3 366H-109z"/><defs><path id="SVGID_9_" d="M398.5 76l-9.2 131-17.7 49.5-31.5 45.4-23.7 22-41 25-42.4 22.8-56.1-30.6-53.9-36.2L76.1 246 52.4 106z"/></defs><clipPath id="SVGID_10_"><use xlink:href="#SVGID_9_" overflow="visible"/></clipPath><path opacity=".2" clip-path="url(#SVGID_10_)" fill="#0899cd" d="M46 210.9L149.1 366H-57.2z"/><defs><path id="SVGID_11_" d="M398.5 76l-9.2 131-17.7 49.5-31.5 45.4-23.7 22-41 25-42.4 22.8-56.1-30.6-53.9-36.2L76.1 246 52.4 106z"/></defs><clipPath id="SVGID_12_"><use xlink:href="#SVGID_11_" overflow="visible"/></clipPath><path opacity=".2" clip-path="url(#SVGID_12_)" fill="#0899cd" d="M356.9 210.9L460 366H253.7z"/><defs><path id="SVGID_13_" d="M398.5 76l-9.2 131-17.7 49.5-31.5 45.4-23.7 22-41 25-42.4 22.8-56.1-30.6-53.9-36.2L76.1 246 52.4 106z"/></defs><clipPath id="SVGID_14_"><use xlink:href="#SVGID_13_" overflow="visible"/></clipPath><path opacity=".2" clip-path="url(#SVGID_14_)" fill="#0899cd" d="M460.5 210.9L563.7 366H357.3z"/><defs><path id="SVGID_15_" d="M398.5 76l-9.2 131-17.7 49.5-31.5 45.4-23.7 22-41 25-42.4 22.8-56.1-30.6-53.9-36.2L76.1 246 52.4 106z"/></defs><clipPath id="SVGID_16_"><use xlink:href="#SVGID_15_" overflow="visible"/></clipPath><path opacity=".2" clip-path="url(#SVGID_16_)" fill="#0899cd" d="M253.2 133.1L408.1 366H98.2z"/><defs><path id="SVGID_17_" d="M398.5 76l-9.2 131-17.7 49.5-31.5 45.4-23.7 22-41 25-42.4 22.8-56.1-30.6-53.9-36.2L76.1 246 52.4 106z"/></defs><clipPath id="SVGID_18_"><use xlink:href="#SVGID_17_" overflow="visible"/></clipPath><path opacity=".2" clip-path="url(#SVGID_18_)" fill="#0899cd" d="M201.4 133.1L356.3 366H46.4z"/><defs><path id="SVGID_19_" d="M398.5 76l-9.2 131-17.7 49.5-31.5 45.4-23.7 22-41 25-42.4 22.8-56.1-30.6-53.9-36.2L76.1 246 52.4 106z"/></defs><clipPath id="SVGID_20_"><use xlink:href="#SVGID_19_" overflow="visible"/></clipPath><path opacity=".2" clip-path="url(#SVGID_20_)" fill="#0899cd" d="M356.8 133.1L511.7 366H201.9z"/><defs><path id="SVGID_21_" d="M398.5 76l-9.2 131-17.7 49.5-31.5 45.4-23.7 22-41 25-42.4 22.8-56.1-30.6-53.9-36.2L76.1 246 52.4 106z"/></defs><clipPath id="SVGID_22_"><use xlink:href="#SVGID_21_" overflow="visible"/></clipPath><path opacity=".2" clip-path="url(#SVGID_22_)" fill="#0899cd" d="M408.6 133.1L563.5 366H253.7z"/><defs><path id="SVGID_23_" d="M398.5 76l-9.2 131-17.7 49.5-31.5 45.4-23.7 22-41 25-42.4 22.8-56.1-30.6-53.9-36.2L76.1 246 52.4 106z"/></defs><clipPath id="SVGID_24_"><use xlink:href="#SVGID_23_" overflow="visible"/></clipPath><path opacity=".2" clip-path="url(#SVGID_24_)" fill="#0899cd" d="M45.9 133.1L200.8 366H-109z"/><defs><path id="SVGID_25_" d="M398.5 76l-9.2 131-17.7 49.5-31.5 45.4-23.7 22-41 25-42.4 22.8-56.1-30.6-53.9-36.2L76.1 246 52.4 106z"/></defs><clipPath id="SVGID_26_"><use xlink:href="#SVGID_25_" overflow="visible"/></clipPath><path opacity=".2" clip-path="url(#SVGID_26_)" fill="#0899cd" d="M97.7 133.1L252.6 366H-57.2z"/><defs><path id="SVGID_27_" d="M398.5 76l-9.2 131-17.7 49.5-31.5 45.4-23.7 22-41 25-42.4 22.8-56.1-30.6-53.9-36.2L76.1 246 52.4 106z"/></defs><clipPath id="SVGID_28_"><use xlink:href="#SVGID_27_" overflow="visible"/></clipPath><path opacity=".2" clip-path="url(#SVGID_28_)" fill="#0899cd" d="M408.7 210.9L511.9 366H305.5z"/><defs><path id="SVGID_29_" d="M398.5 76l-9.2 131-17.7 49.5-31.5 45.4-23.7 22-41 25-42.4 22.8-56.1-30.6-53.9-36.2L76.1 246 52.4 106z"/></defs><clipPath id="SVGID_30_"><use xlink:href="#SVGID_29_" overflow="visible"/></clipPath><path opacity=".2" clip-path="url(#SVGID_30_)" fill="#0899cd" d="M460.5 210.9L563.7 366H357.3z"/><defs><path id="SVGID_31_" d="M398.5 76l-9.2 131-17.7 49.5-31.5 45.4-23.7 22-41 25-42.4 22.8-56.1-30.6-53.9-36.2L76.1 246 52.4 106z"/></defs><clipPath id="SVGID_32_"><use xlink:href="#SVGID_31_" overflow="visible"/></clipPath><path opacity=".2" clip-path="url(#SVGID_32_)" fill="#0899cd" d="M-5.8 210.9L97.3 366H-109z"/><defs><path id="SVGID_33_" d="M398.5 76l-9.2 131-17.7 49.5-31.5 45.4-23.7 22-41 25-42.4 22.8-56.1-30.6-53.9-36.2L76.1 246 52.4 106z"/></defs><clipPath id="SVGID_34_"><use xlink:href="#SVGID_33_" overflow="visible"/></clipPath><path opacity=".2" clip-path="url(#SVGID_34_)" fill="#0899cd" d="M149.6 210.9L252.8 366H46.4z"/></g><path d="M230.2 14.7h-2c-50.4.1-126.6 15.4-170.6 36v4c-.1 67.8.8 152.2 29.3 204 29.2 53.5 72.8 75 142.3 112 69.5-37 113.1-58.5 142.3-112 28.3-51.4 29.2-134.8 29.1-202.2v-5.8c-45-21.6-117.2-36-170.4-36z" fill="none" stroke="#cccaca" stroke-width="9" stroke-miterlimit="10"/><path d="M397.5 207.7h47.9l-18 33.6 18 33.6h-47.9zm-336.8 0H12.8l18 33.6-18 33.6h47.9z" fill="#0191b7"/><path d="M417.1 292v-67.2l-19.6-17.7v59.1zm-376.1.1v-67.3l19.6-17.7v59.1z" fill="#036c84"/><path class="st22" d="M97 173.6c2.4 1.4 8.7 5.2 17.5 5.2 20.2 0 22.9-19 22.9-28.6h-.3c-3.9 6-10.7 8.2-18 8.2-18.3 0-29.2-13.7-29.2-37.8 0-20.7 13.1-35.4 34.3-35.4 32.4 0 40.3 27.2 40.3 53.7 0 23.7-6 60.4-45.5 60.4-10.6 0-19.4-2.4-23.5-4.4l1.5-21.3zm29.9-69c-6.8 0-9.2 7-9.2 16.7s2.1 16 9 16c7.3 0 9.3-7 9.3-16.7 0-9.5-2.8-16-9.1-16z"/><path class="st23" d="M96 170.6c2.4 1.4 8.7 5.2 17.5 5.2 20.2 0 22.9-19 22.9-28.6h-.3c-3.9 6-10.7 8.2-18 8.2-18.3 0-29.2-13.7-29.2-37.8 0-20.7 13.1-35.4 34.3-35.4 32.4 0 40.3 27.2 40.3 53.7 0 23.7-6 60.4-45.5 60.4-10.6 0-19.4-2.4-23.5-4.4l1.5-21.3zm29.9-69c-6.8 0-9.2 7-9.2 16.7s2.1 16 9 16c7.3 0 9.3-7 9.3-16.7 0-9.5-2.8-16-9.1-16z"/><path class="st22" d="M417.1 224.8V292L41 291.9v-67.2z"/><path class="st24" d="M61.6 239.8h299.8v47.3H61.6z"/><path class="st0" d="M100.4 250.2c-1.8-.9-4.2-1.6-6.5-1.6-2.2 0-5.3.9-5.3 3.6 0 5 10.7 4.7 10.7 13.4 0 7.7-6 10.5-12.9 10.5-3 0-6.1-.7-9-1.8L79 269c2.4 1.1 5 2.2 7.7 2.2 3 0 6-1.5 6-4.9 0-5.7-10.7-4.8-10.7-13.1 0-6.6 5.7-9.5 11.7-9.5 2.7 0 5.6.4 8.1 1.4l-1.4 5.1zm15.7-6l-3.2 14.9c-1 4.4-2.7 12.1 4.3 12.1 6.5 0 7.7-5.9 8.8-11.1l3.4-15.9h6.2l-4.2 19c-1.8 8.1-5.6 13-14.3 13-10.3 0-12.8-5.9-10.9-14.9l3.6-17h6.3v-.1zm47.1 6.2c-1.4-1-3.8-1.8-7.2-1.8-7 0-11.9 5.3-11.9 12.6 0 5.3 3.4 9.9 9 9.9 2.7 0 4.8-.9 6.6-1.9l-1 6c-2.3.6-4.7.9-7.1.9-9.5 0-14-6.4-14-14.9 0-10.1 6.9-17.6 18-17.6 3.1 0 6.5.4 9.2 1.5l-1.6 5.3zm27.5 0c-1.4-1-3.8-1.8-7.2-1.8-7 0-11.9 5.3-11.9 12.6 0 5.3 3.4 9.9 9 9.9 2.7 0 4.8-.9 6.6-1.9l-1 6c-2.3.6-4.7.9-7.1.9-9.5 0-14-6.4-14-14.9 0-10.1 6.9-17.6 18-17.6 3.1 0 6.5.4 9.2 1.5l-1.6 5.3zm6.7-6.2h18.5l-.9 4.9h-12.3l-1.6 7.7h11l-1 4.9h-11l-1.8 8.8h12.4l-1.1 4.9h-18.7l6.5-31.2zm40.4 6c-1.8-.9-4.2-1.6-6.5-1.6-2.2 0-5.3.9-5.3 3.6 0 5 10.7 4.7 10.7 13.4 0 7.7-6 10.5-12.9 10.5-3 0-6.1-.7-9-1.8l1.6-5.4c2.4 1.1 5 2.2 7.7 2.2 3 0 6-1.5 6-4.9 0-5.7-10.7-4.8-10.7-13.1 0-6.6 5.7-9.5 11.7-9.5 2.7 0 5.6.4 8.1 1.4l-1.4 5.2zm25 0c-1.8-.9-4.2-1.6-6.5-1.6-2.2 0-5.3.9-5.3 3.6 0 5 10.7 4.7 10.7 13.4 0 7.7-6 10.5-12.9 10.5-3 0-6.1-.7-9-1.8l1.6-5.4c2.4 1.1 5 2.2 7.7 2.2 3 0 6-1.5 6-4.9 0-5.7-10.7-4.8-10.7-13.1 0-6.6 5.7-9.5 11.7-9.5 2.7 0 5.6.4 8.1 1.4l-1.4 5.2zm21.7-6h7.4c5.8 0 12.5-.1 12.5 7.4 0 5.4-4 8.3-9.2 8.4v.1c1.7.1 2.8 1.2 3.2 2.9l3 12.6h-6.6l-1.5-7.4c-.7-3.3-.5-5.7-4-5.7H287l-2.7 13H278l6.5-31.3zm3.6 13.4h2.3c3.4 0 7.5-1 7.5-5.2 0-3.3-2.8-3.3-5.4-3.3h-2.6l-1.8 8.5zm33.5-13.4h7l5.7 31.4H328l-1.1-7.2h-13.4l-4 7.2h-7l19.1-31.4zm-5.3 19.2h9.7l-2-13.7h-.2l-7.5 13.7zm22.2-19.2h24.2l-1 4.9h-8.9l-5.7 26.4h-6.6l5.7-26.4h-8.9l1.2-4.9zm28.1 0h18.5l-.9 4.9h-12.3l-1.6 7.7h11l-1 4.9h-11l-1.8 8.8h12.4l-1.1 4.9H360l6.6-31.2z"/><path class="st24" d="M26 240.6h406.1v35.3H26z"/><path class="st23" d="M97.4 249c-1.8-.9-4.2-1.6-6.5-1.6-2.2 0-5.3.9-5.3 3.6 0 5 10.7 4.7 10.7 13.4 0 7.7-6 10.5-12.9 10.5-3 0-6.1-.7-9-1.8l1.6-5.4c2.4 1.1 5 2.2 7.7 2.2 3 0 6-1.5 6-4.9 0-5.7-10.7-4.8-10.7-13.1 0-6.6 5.7-9.5 11.7-9.5 2.7 0 5.6.4 8.1 1.4l-1.4 5.2zm15.8-6.1l-3.2 14.9c-1 4.4-2.7 12.1 4.3 12.1 6.5 0 7.7-5.9 8.8-11.1l3.4-15.9h6.2l-4.2 19c-1.8 8.1-5.6 13-14.3 13-10.3 0-12.8-5.9-10.9-14.9l3.6-17h6.3v-.1zm47.1 6.3c-1.4-1-3.8-1.8-7.2-1.8-7 0-11.9 5.3-11.9 12.6 0 5.3 3.4 9.9 9 9.9 2.7 0 4.8-.9 6.6-1.9l-1 6c-2.3.6-4.7.9-7.1.9-9.5 0-14-6.4-14-14.9 0-10.1 6.9-17.6 18-17.6 3.1 0 6.5.4 9.2 1.5l-1.6 5.3zm27.5 0c-1.4-1-3.8-1.8-7.2-1.8-7 0-11.9 5.3-11.9 12.6 0 5.3 3.4 9.9 9 9.9 2.7 0 4.8-.9 6.6-1.9l-1 6c-2.3.6-4.7.9-7.1.9-9.5 0-14-6.4-14-14.9 0-10.1 6.9-17.6 18-17.6 3.1 0 6.5.4 9.2 1.5l-1.6 5.3zm6.7-6.3H213l-.9 4.9h-12.3l-1.6 7.7h11l-1 4.9h-11l-1.8 8.8h12.4l-1.1 4.9H188l6.5-31.2zm40.4 6.1c-1.8-.9-4.2-1.6-6.5-1.6-2.2 0-5.3.9-5.3 3.6 0 5 10.7 4.7 10.7 13.4 0 7.7-6 10.5-12.9 10.5-3 0-6.1-.7-9-1.8l1.6-5.4c2.4 1.1 5 2.2 7.7 2.2 3 0 6-1.5 6-4.9 0-5.7-10.7-4.8-10.7-13.1 0-6.6 5.7-9.5 11.7-9.5 2.7 0 5.6.4 8.1 1.4l-1.4 5.2zm25 0c-1.8-.9-4.2-1.6-6.5-1.6-2.2 0-5.3.9-5.3 3.6 0 5 10.7 4.7 10.7 13.4 0 7.7-6 10.5-12.9 10.5-3 0-6.1-.7-9-1.8l1.6-5.4c2.4 1.1 5 2.2 7.7 2.2 3 0 6-1.5 6-4.9 0-5.7-10.7-4.8-10.7-13.1 0-6.6 5.7-9.5 11.7-9.5 2.7 0 5.6.4 8.1 1.4l-1.4 5.2zm21.7-6.1h7.4c5.8 0 12.5-.1 12.5 7.4 0 5.4-4 8.3-9.2 8.4v.1c1.7.1 2.8 1.2 3.2 2.9l3 12.6h-6.6l-1.5-7.4c-.7-3.3-.5-5.7-4-5.7H284l-2.7 13H275l6.6-31.3zm3.6 13.4h2.3c3.4 0 7.5-1 7.5-5.2 0-3.3-2.8-3.3-5.4-3.3H287l-1.8 8.5zm33.5-13.4h7l5.7 31.4h-6.3l-1.1-7.2h-13.4l-4 7.2h-7l19.1-31.4zm-5.3 19.3h9.7l-2-13.7h-.1l-7.6 13.7zm22.2-19.3h24.2l-1 4.9h-8.9l-5.7 26.5h-6.6l5.7-26.5h-8.9l1.2-4.9zm28.1 0h18.5l-.9 4.9H369l-1.6 7.7h11l-1 4.9h-11l-1.8 8.8H377l-1.1 4.9h-18.7l6.5-31.2z"/><path class="st22" d="M188.6 140c-8-3.5-14.8-12.7-14.8-23.6 0-23.6 15.3-31.8 32.3-31.8s29.6 8.9 29.6 28.3c0 13.6-6.7 21.7-14.2 25.3v.3c9.4 3.8 17.4 10.6 17.4 27.2 0 23.7-15.8 33.1-33.8 33.1-18.5 0-33.5-8.9-33.5-31.5 0-16.1 7.8-23.7 17-27.2v-.1zm16.2 38.9c6.5 0 11.8-5.2 11.8-14.2 0-9.8-7.1-13.8-12.9-16-5.6 3.3-10 7.9-10 16.5 0 7.9 5.1 13.7 11.1 13.7zm3-47.7c6-4.4 9.7-8.4 9.7-15.8 0-7.9-5.3-11.7-10.3-11.7-5.6 0-10.1 5.4-10.1 13 0 8.3 5.4 11.4 10.7 14.5z"/><path class="st23" d="M188.6 137.6c-8-3.5-14.8-12.7-14.8-23.6 0-23.6 15.3-31.8 32.3-31.8s29.6 8.9 29.6 28.3c0 13.6-6.7 21.7-14.2 25.3v.3c9.4 3.8 17.4 10.6 17.4 27.2 0 23.7-15.8 33.1-33.8 33.1-18.5 0-33.5-8.9-33.5-31.5 0-16.1 7.8-23.7 17-27.2v-.1zm16.2 38.9c6.5 0 11.8-5.2 11.8-14.2 0-9.8-7.1-13.8-12.9-16-5.6 3.3-10 7.9-10 16.5 0 7.8 5.1 13.7 11.1 13.7zm.4-47.8c6-4.4 9.7-8.4 9.7-15.8 0-7.9-5.3-11.7-10.3-11.7-5.6 0-10.1 5.4-10.1 13 0 8.3 5.4 11.5 10.7 14.5z"/><path class="st22" d="M271.4 88.7c19.4 0 24.3 15.4 24.3 30.7 0 15.7-4.9 30.7-24.3 30.7s-24.3-15.1-24.3-30.7c0-15.3 4.9-30.7 24.3-30.7zm0 13.4c-4.9 0-6.3 6.9-6.3 17.3s1.4 17.3 6.3 17.3c5.1 0 6.3-6.9 6.3-17.3s-1.2-17.3-6.3-17.3zm54.4-16.7h15.5l-49.9 114.4h-15.5l49.9-114.4zm19.6 49.6c19.4 0 24.3 15.4 24.3 30.8 0 15.7-4.9 30.7-24.3 30.7s-24.3-15.1-24.3-30.7c0-15.4 4.9-30.8 24.3-30.8zm0 13.4c-4.9 0-6.3 6.9-6.3 17.3s1.4 17.3 6.3 17.3c5.1 0 6.3-6.9 6.3-17.3s-1.3-17.3-6.3-17.3z"/><path class="st23" d="M270.4 85.5c19.4 0 24.3 15.4 24.3 30.7 0 15.7-4.9 30.7-24.3 30.7s-24.3-15.1-24.3-30.7c0-15.3 4.9-30.7 24.3-30.7zm0 13.4c-4.9 0-6.3 6.9-6.3 17.3s1.4 17.3 6.3 17.3c5.1 0 6.3-6.9 6.3-17.3s-1.2-17.3-6.3-17.3zm54.4-16.7h15.5l-49.9 114.4h-15.5l49.9-114.4zm19.6 49.6c19.4 0 24.3 15.4 24.3 30.8 0 15.7-4.9 30.7-24.3 30.7s-24.3-15.1-24.3-30.7c0-15.4 4.9-30.8 24.3-30.8zm0 13.5c-4.9 0-6.3 6.9-6.3 17.3s1.4 17.3 6.3 17.3c5.1 0 6.3-6.9 6.3-17.3s-1.3-17.3-6.3-17.3z"/></svg>