<svg id="Layer_1" data-name="Layer 1" xmlns="http://www.w3.org/2000/svg" viewBox="0 0 289 289"><defs><style>.cls-5{isolation:isolate;fill:#0899cd;opacity:.2}</style><clipPath id="clip-path"><path fill="none" d="M0 .01h289v289H0z"/></clipPath></defs><path fill="#0c2340" d="M0 .01h289v289H0z"/><g style="isolation:isolate" opacity=".8" clip-path="url(#clip-path)"><path class="cls-5" d="M117.04 141.2l103.2 155.1H13.84l103.2-155.1z"/><path class="cls-5" d="M220.74 141.2l103.1 155.1h-206.3l103.2-155.1zm-207.3 0l103.2 155.1h-206.4l103.2-155.1z"/><path class="cls-5" d="M-90.16 141.2l103.1 155.1h-206.3l103.2-155.1z"/><path class="cls-5" d="M-38.36 141.2l103.1 155.1h-206.3l103.2-155.1zm310.9 0l103.1 155.1h-206.3l103.2-155.1z"/><path class="cls-5" d="M376.14 141.2l103.2 155.1h-206.4l103.2-155.1z"/><path class="cls-5" d="M168.84 63.4l154.9 232.9H13.84l155-232.9z"/><path class="cls-5" d="M117.04 63.4l154.9 232.9h-309.9l155-232.9z"/><path class="cls-5" d="M272.44 63.4l154.9 232.9h-309.8l154.9-232.9z"/><path class="cls-5" d="M324.24 63.4l154.9 232.9h-309.8l154.9-232.9zm-362.7 0l154.9 232.9h-309.8l154.9-232.9z"/><path class="cls-5" d="M13.34 63.4l154.9 232.9h-309.8L13.34 63.4zm311 77.8l103.2 155.1h-206.4l103.2-155.1z"/><path class="cls-5" d="M376.14 141.2l103.2 155.1h-206.4l103.2-155.1zm-466.3 0l103.1 155.1h-206.3l103.2-155.1z"/><path class="cls-5" d="M65.24 141.2l103.2 155.1h-206.4l103.2-155.1z"/></g></svg>