<?xml version="1.0" encoding="UTF-8"?>
<svg width="46px" height="45px" viewBox="0 0 46 45" version="1.1" xmlns="http://www.w3.org/2000/svg" xmlns:xlink="http://www.w3.org/1999/xlink">
    <title>Facebook</title>
    <g id="Page-1" stroke="none" stroke-width="1" fill="none" fill-rule="evenodd">
        <g id="Desktop-HD" transform="translate(-569.000000, -3707.000000)">
            <g id="FOOTER" transform="translate(0.000000, 3383.000000)">
                <g id="Social-Icons" transform="translate(570.000000, 323.866000)">
                    <g id="Facebook">
                        <path d="M44,22.5106 C44,34.6606 34.15,44.5106 22,44.5106 C9.85,44.5106 0,34.6606 0,22.5106 C0,10.3606 9.85,0.5106 22,0.5106 C34.15,0.5106 44,10.3606 44,22.5106" id="Fill-54" fill="#13355A"></path>
                        <path d="M44,22.5106 C44,34.6606 34.15,44.5106 22,44.5106 C9.85,44.5106 0,34.6606 0,22.5106 C0,10.3606 9.85,0.5106 22,0.5106 C34.15,0.5106 44,10.3606 44,22.5106 Z" id="Stroke-55" stroke="#0098CD" stroke-width="0.715"></path>
                        <path d="M23.2637,19.1268 L23.2637,17.7728 C23.2637,17.1218 23.6937,16.9668 24.0057,16.9668 L25.9007,16.9668 L25.9007,14.0728 L23.2907,14.0728 C20.3887,14.0728 19.7387,16.2148 19.7387,17.6068 L19.7387,19.1268 L18.0537,19.1268 L18.0537,21.1688 L18.0537,22.5058 L19.7567,22.5058 L19.7567,30.9478 L23.1357,30.9478 L23.1357,22.5058 L25.6357,22.5058 L25.7447,21.1778 L25.9467,19.1268 L23.2637,19.1268 Z" id="Fill-56" fill="#FEFEFE"></path>
                    </g>
                </g>
            </g>
        </g>
    </g>
</svg>
 