<?xml version="1.0" encoding="UTF-8"?>
<svg width="46px" height="45px" viewBox="0 0 46 45" version="1.1" xmlns="http://www.w3.org/2000/svg" xmlns:xlink="http://www.w3.org/1999/xlink">
    <title>Instagram</title>
    <path d="M26.9385,22.5057 C26.9385,19.7807 24.7295,17.5637 21.9965,17.5637 C19.2705,17.5637 17.0535,19.7807 17.0535,22.5057 C17.0535,25.2397 19.2705,27.4487 21.9965,27.4487 C24.7295,27.4487 26.9385,25.2397 26.9385,22.5057 M26.8445,16.8957 C26.4055,16.8957 26.0495,17.2507 26.0495,17.6907 C26.0495,18.1307 26.4055,18.4857 26.8445,18.4857 C27.2855,18.4857 27.6405,18.1307 27.6405,17.6907 C27.6405,17.2507 27.2855,16.8957 26.8445,16.8957 M17.9595,15.7527 L26.0415,15.7527 C27.5395,15.7527 28.7575,16.9707 28.7575,18.4697 L28.7575,26.5517 C28.7575,28.0497 27.5395,29.2687 26.0415,29.2687 L17.9595,29.2687 C16.4605,29.2687 15.2425,28.0497 15.2425,26.5517 L15.2425,18.4697 C15.2425,16.9707 16.4605,15.7527 17.9595,15.7527 M26.0415,14.8467 L17.9595,14.8467 C15.9695,14.8467 14.3365,16.4717 14.3365,18.4697 L14.3365,26.5517 C14.3365,28.5397 15.9695,30.1737 17.9595,30.1737 L26.0415,30.1737 C28.0395,30.1737 29.6635,28.5397 29.6635,26.5517 L29.6635,18.4697 C29.6635,16.4717 28.0395,14.8467 26.0415,14.8467 M18.0855,22.5057 C18.0855,20.3477 19.8375,18.5877 21.9965,18.5877 C24.1625,18.5877 25.9145,20.3477 25.9145,22.5057 C25.9145,24.6727 24.1625,26.4247 21.9965,26.4247 C19.8375,26.4247 18.0855,24.6727 18.0855,22.5057"></path>
</svg>