<?xml version="1.0" encoding="utf-8"?>
<!-- Generator: Adobe Illustrator 23.0.3, SVG Export Plug-In . SVG Version: 6.00 Build 0)  -->
<svg version="1.1" id="Layer_1" xmlns="http://www.w3.org/2000/svg" xmlns:xlink="http://www.w3.org/1999/xlink" x="0px" y="0px"
	 viewBox="0 0 46 45" style="enable-background:new 0 0 46 45;" xml:space="preserve">
<title>Instagram</title>
<path d="M27.9,22.5c0-2.7-2.2-4.9-4.9-4.9c-2.7,0-4.9,2.2-4.9,4.9c0,2.7,2.2,4.9,4.9,4.9C25.7,27.4,27.9,25.2,27.9,22.5 M27.8,16.9
	c-0.4,0-0.8,0.4-0.8,0.8c0,0.4,0.4,0.8,0.8,0.8c0.4,0,0.8-0.4,0.8-0.8C28.6,17.3,28.3,16.9,27.8,16.9 M19,15.8H27
	c1.5,0,2.7,1.2,2.7,2.7v8.1c0,1.5-1.2,2.7-2.7,2.7H19c-1.5,0-2.7-1.2-2.7-2.7v-8.1C16.2,17,17.5,15.8,19,15.8 M27,14.8H19
	c-2,0-3.6,1.6-3.6,3.6v8.1c0,2,1.6,3.6,3.6,3.6H27c2,0,3.6-1.6,3.6-3.6v-8.1C30.7,16.5,29,14.8,27,14.8 M19.1,22.5
	c0-2.2,1.8-3.9,3.9-3.9c2.2,0,3.9,1.8,3.9,3.9c0,2.2-1.8,3.9-3.9,3.9C20.8,26.4,19.1,24.7,19.1,22.5"/>
</svg>
