<?xml version="1.0" encoding="UTF-8"?>
<svg width="46px" height="45px" viewBox="0 0 46 45" version="1.1" xmlns="http://www.w3.org/2000/svg" xmlns:xlink="http://www.w3.org/1999/xlink">
    <title>LinkedIn</title>
    <g id="Page-1" stroke="none" stroke-width="1" fill="none" fill-rule="evenodd">
        <g id="Desktop-HD" transform="translate(-697.000000, -3707.000000)">
            <g id="FOOTER" transform="translate(0.000000, 3383.000000)">
                <g id="Social-Icons" transform="translate(570.000000, 323.866000)">
                    <g id="LinkedIn" transform="translate(128.000000, 0.000000)">
                        <path d="M44,22.5106 C44,34.6606 34.15,44.5106 22,44.5106 C9.85,44.5106 0,34.6606 0,22.5106 C0,10.3606 9.85,0.5106 22,0.5106 C34.15,0.5106 44,10.3606 44,22.5106" id="Fill-60" fill="#13355A"></path>
                        <path d="M44,22.5106 C44,34.6606 34.15,44.5106 22,44.5106 C9.85,44.5106 0,34.6606 0,22.5106 C0,10.3606 9.85,0.5106 22,0.5106 C34.15,0.5106 44,10.3606 44,22.5106 Z" id="Stroke-61" stroke="#0098CD" stroke-width="0.715"></path>
                        <path d="M16.542,15.3925 C15.625,15.3925 14.882,16.1345 14.882,17.0525 C14.882,17.9695 15.625,18.7115 16.542,18.7115 C17.459,18.7115 18.201,17.9695 18.201,17.0525 C18.201,16.1345 17.459,15.3925 16.542,15.3925 Z M29.039,23.0515 C28.82,21.2525 28,20.1345 25.572,20.1345 C24.148,20.1345 23.188,20.6595 22.786,21.4185 L22.742,21.4185 L22.742,20.1345 L20.096,20.1345 L20.096,21.9595 L20.096,29.6275 L22.865,29.6275 L22.865,24.9205 C22.865,23.6805 23.109,22.4845 24.629,22.4845 C26.157,22.4845 26.271,23.8995 26.271,25.0075 L26.271,29.6275 L29.117,29.6275 L29.117,24.4135 C29.117,23.9245 29.091,23.4715 29.039,23.0515 Z M14.882,22.6595 L14.882,29.6275 L18.201,29.6275 L18.201,22.0915 L18.201,20.1345 L14.882,20.1345 L14.882,22.6595 Z" id="Fill-62" fill="#FEFEFE"></path>
                    </g>
                </g>
            </g>
        </g>
    </g>
</svg>