<?xml version="1.0" encoding="utf-8"?>
<!-- Generator: Adobe Illustrator 23.0.3, SVG Export Plug-In . SVG Version: 6.00 Build 0)  -->
<svg version="1.1" id="Layer_1" xmlns="http://www.w3.org/2000/svg" xmlns:xlink="http://www.w3.org/1999/xlink" x="0px" y="0px"
	 viewBox="0 0 46 45" style="enable-background:new 0 0 46 45;" xml:space="preserve">
<title>LinkedIn</title>
<path d="M17.5,15.4c-0.9,0-1.7,0.7-1.7,1.7c0,0.9,0.7,1.7,1.7,1.7s1.7-0.7,1.7-1.7C19.2,16.1,18.5,15.4,17.5,15.4z M30,23.1
	c-0.2-1.8-1-2.9-3.5-2.9c-1.4,0-2.4,0.5-2.8,1.3h0v-1.3h-2.6V22v7.7h2.8v-4.7c0-1.2,0.2-2.4,1.8-2.4c1.5,0,1.6,1.4,1.6,2.5v4.6h2.8
	v-5.2C30.1,23.9,30.1,23.5,30,23.1z M15.9,22.7v7h3.3v-7.5v-2h-3.3V22.7z"/>
</svg>
