<svg xmlns="http://www.w3.org/2000/svg" width="121.2" height="96.5" viewBox="0 0 121.2 96.5">
  <title>X</title>
  <path d="M51.2,84.3l9.4-14.1L70,84.3l-9.4,5.4Zm0-72.1,9.4-5.4L70,12.2,60.6,26.3ZM0,0,14.9,13.7,37.5,48.2,15.1,82.6.1,96.5h121l-15-13.9L83.7,48.2l22.5-34.4L121.2,0Z" fill="#9c9799"/>
  <path d="M65,89.8l-4.4,2.6-4.5-2.6-8.2-4.7L60.6,66,73.3,85.1ZM56.1,6.6l4.5-2.5L65,6.6l8.3,4.8L60.6,30.5,47.9,11.4Zm48.2,77.5L81,48.2l23.4-36,10.8-9.9H5.9l10.8,9.9,23.5,36L16.9,84.1,6,94.2H115.2Z" fill="#001641"/>
  <path d="M78.2,48.2l24.4-37.5,6.7-6.1H66.2l10.4,6-16,24-16-24L55,4.6H11.9l6.6,6.1L43,48.2,18.7,85.6l-6.8,6.3H55l-10.4-6,16-24.1,16,24.1-10.4,6h43.1l-6.8-6.3Z" fill="#fff"/>
  <path d="M108.2,77.7a4,4,0,1,1,4,4A4,4,0,0,1,108.2,77.7Zm7,0a3,3,0,1,0-3,3.2A3,3,0,0,0,115.2,77.7Zm-4.5-2.2h1.7c1.1,0,1.7.4,1.7,1.3s-.4,1.1-1.2,1.2l1.2,2h-.9L112,78.1h-.5V80h-.8Zm.8,1.9h.7c.5,0,.9-.1.9-.7s-.5-.6-.9-.6h-.7Z" fill="#9ea1a2"/>
</svg>
