<?xml version="1.0" encoding="utf-8"?>
<!-- Generator: Adobe Illustrator 24.3.0, SVG Export Plug-In . SVG Version: 6.00 Build 0)  -->
<svg version="1.1" id="Layer_1" xmlns="http://www.w3.org/2000/svg" xmlns:xlink="http://www.w3.org/1999/xlink" x="0px" y="0px"
	 viewBox="0 0 766.7 712.8" style="enable-background:new 0 0 766.7 712.8;" xml:space="preserve">
<style type="text/css">
	.st0{fill:#B0B7BC;}
	.st1{fill:#001641;}
	.st2{fill:#FFFFFF;}
</style>
<g>
	<path class="st0" d="M337.6,405.1c-0.4,0.4-0.9,0.9-1.3,1.3v-1.2C336.7,405.2,337.2,405.1,337.6,405.1 M17.7,120.8l18.4,4.3
		l3.8,0.9c-8.4,17-15.4,41.5-8.8,71.2C10.8,229.3,0,264.9,0,301.7c0,86.8,65.9,153,183.9,188.3c-14.8,4.7-29.1,8.7-43.1,11.3
		l-12.7,2.4l8,10.2C173.3,561,271.7,674.6,383.7,712l2.5,0.8l2.5-0.8c112.1-37.5,210.5-151,247.6-198.1l8-10.2l-12.7-2.4
		c-15.9-3-32.5-7.8-49.6-13.4c114.2-38.1,184.7-109.8,184.7-193.1c0-57.8-35.8-113.4-100.8-156.5l-11-7.3l-8.5,10.2
		c-30.2,36.2-76,63.3-131.1,79.4c-2-8-3.7-16.5-4.9-22.7c-6-29.6-9.9-46.7-21.4-54.2l-0.6-0.4l-0.6-0.3
		c-57.2-30.6-111-29.5-146.4-23.1c-2.8-5.1-5.3-9.7-7.4-13.5c-3.5-6.4-6-11.1-7.8-14.1l-2.3-3.9C310,64,272.9-0.7,188.6,0.1
		c0,0-95.5-4.1-146.8,53.5L67,59C67,59,35.3,77.7,17.7,120.8"/>
	<path class="st1" d="M657.7,150.6c-34.1,40.8-87.8,71.4-152.7,87.8c-9.5-27.3-12.9-75-24.2-82.5c-59.5-31.8-115.5-26.7-147.4-19.3
		c-9.7-17.3-16.9-31-20.2-36.7c-11.5-19.4-44-85.6-124.5-84.8C108.3,16,74.6,45.1,74.6,45.1l34.6,7.5C56.6,75,39.6,110.3,39.6,110.3
		l24.4,5.7c-9,11.6-28.1,42.2-16.6,83.4C25.5,231.6,14.7,267,14.7,301.7c0,108.5,112.4,171.7,261.9,193.1
		c-50.2-54.5-28.6-107.7-28.6-107.7h29.4c0,0-49.9-55.5,10.9-105.2c0,0,11.5,8.7,29.7,18.6c-29,5-39.5,22.6-39.5,22.6
		c43.4-17.7,79.9,11.3,79.9,11.3c2-5.7,3.7-10.4,5-14.2c10.3,3.3,21.2,6,32.4,7.5l6.3,41.5c0,0-19,0.1-29.9,4.3
		c0,0,20.5,10.5,27.2,22.2l-9.4,7.7l-10.5-7.7c0,0-25.7,6.9-41.5,32.1c0,0,21.7-16.3,53.5-16.3s61.7,15.2,24.8,75.3l-26.4-32.1
		l-26.4,32.1l-9.9-18.1l-21.7,27.4c0,0-46.2-18.3-69.4-74.6c0,0-8.2,46,56.6,91.5c58.4,41,70.9,68.9,70.9,68.9s12.5-27.9,70.9-68.9
		c64.8-45.5,56.6-91.5,56.6-91.5s16.7,31-8.6,69.9c143.7-26.9,242.9-104.1,242.9-196.6C751.9,240.3,716.3,189.4,657.7,150.6"/>
	<path class="st1" d="M572.4,501.3c-9,12.8-75.2,103.3-186.2,143.1c-110.9-39.8-177.2-130.3-186.1-143.1c-14.9,5-29.4,9.4-43.6,12.8
		c40.6,49.9,129.8,147.6,229.8,182.1C486.2,661.7,575.4,564,616,514.1C601.8,510.7,587.3,506.3,572.4,501.3"/>
	<path class="st0" d="M699,229.9c2.5,15,3,30.7,1.4,46.8c-6.5,66.6-61.4,125.5-131.9,160.7c73.3-17,140.1-70.5,146.3-133.7
		C717.5,276.7,712.1,251.3,699,229.9"/>
	<path class="st0" d="M410.8,394.6c0,0,34.8,24.4,78.4,0c0,0-40.4,11.3-68.3-4.3L410.8,394.6z"/>
	<path class="st0" d="M442.3,341.9c11.9-3.4,19.2-4.4,21.3,3.9c2.1,8.3-5.9,17.8-17.8,21.1c-11.9,3.4-23.3-0.6-25.4-8.9
		C418.4,349.7,430.4,345.3,442.3,341.9"/>
	<path class="st0" d="M285.1,190.8l-6.4-6.6C245,149.9,219.7,150,219.5,150l-0.1,0l-0.1,0C186.2,147.2,58.6,171,45,273.8
		c-10,75.8,33.7,117.7,61.8,136.4c-29.7-29.5-60-85.2-38-141.7c14-35.8,45.3-63.2,83.8-73.3c38.1-10,77.4-1.5,107.9,23.4
		c63,51.4,133.8,99.8,245.4,77.2c75.7-15.3,116.6-59.2,134.6-85c-35.5,34.8-103.1,76.5-180,76.5
		C378.8,287.4,317.8,224.6,285.1,190.8"/>
	<path class="st2" d="M279,146.5c20.5,22.3,58.5,83.3,121.5,103.3C356.1,218,326.3,159,282.7,88.1c-47.8-77.9-141.8-42.4-141.8-42.4
		l25.9,13.8c-54.7,5.6-85.3,36.3-85.3,36.3l29.7,8C78.9,128,74.5,156.6,75,172.5c39.1-32.7,92.9-53.2,152.4-53.8
		C227.4,118.7,250.6,115.7,279,146.5"/>
	<path class="st2" d="M390.4,454.7l26.5,32.1c10.8-17.6,15.8-31.3,16.8-41.9c0.7-9.2-1.6-15.8-4.9-20.3c-5.6-7.3-15.1-11-25.9-12.4
		c-3.6-0.4-7.4-0.6-11.4-0.7c-31.6,0.2-53.1,16.3-53.1,16.3c5.7-12.4,18.1-21,27.9-26.1c7.8-4.3,13.6-5.9,13.6-5.9l10.4,7.6l9.4-7.6
		c0,0-3.8-5.8-11.9-12.4c-7.5-5.8-15.3-9.8-15.3-9.8s10.2-4.2,29.7-4.3h0.2l-6.3-41.5c-11.2-1.5-22.1-4.2-32.4-7.5
		c-1.3,3.8-3,8.4-5,14.2c0,0-36.4-29-79.9-11.3c0,0,0-0.1,0.1-0.2l0,0c0.9-1.5,7.1-10.4,21.1-16.9c0.1,0,0.1-0.1,0.2-0.1
		c1.2-0.5,2.5-1.1,3.8-1.6c0.2,0,0.3-0.1,0.5-0.2c1.3-0.5,2.6-0.9,3.9-1.4c0.3-0.1,0.5-0.1,0.8-0.2c1.3-0.4,2.6-0.8,4-1.1
		c0.4-0.1,0.8-0.1,1.1-0.2c1.3-0.3,2.5-0.6,3.9-0.8c-18.2-9.9-29.7-18.6-29.7-18.6c-60.9,49.7-10.9,105.2-10.9,105.2h-5.2
		c0,0,3.7,62.5,68.2,98.2l13.2-16.6l9.9,18.1L390.4,454.7z"/>
	<path class="st1" d="M390.2,439c6.8-5.1,19-8.5,33.1-8.7c-7.3-4.6-19.4-7.7-33.1-7.7c-13.7,0-25.8,3-33.1,7.7
		C371.2,430.5,383.4,433.9,390.2,439"/>
	<path class="st1" d="M369.5,394.6c0,0-34.8,24.4-78.4,0c0,0,34.8,4.4,62.7-11.3L369.5,394.6z"/>
	<path class="st0" d="M75,172.5c1.7-1.4,3.5-2.8,5.3-4.2c38.6-30.2,90.3-49,147.1-49.5c0,0,23.2-3.1,51.5,27.8
		c20,21.7,56.4,79.9,116.2,101.5c1.1,0.2,2.2,0.3,3.3,0.5c-1.4-1-2.7-2-4.1-3.1c-39.8-20.1-64.5-57.6-91.2-93.7
		c-29.8-40.2-40.9-59.3-107.9-53.7c-30.8,2.6-53.1,10-68.2,17.2c0.4-0.5,0.8-1,1.2-1.5c43.2-41.3,96.8-37.3,96.8-37.3
		C146.5,62.9,81.6,95.8,81.6,95.8l29.7,8C78.9,128,74.5,156.6,75,172.5"/>
	<path class="st2" d="M247.2,390.1c0,0,38.3,7.9,76.3-0.3c41.5-9,80.8-28.4,80.8-28.4s40.2,29.6,61.3,32.9c28.4,4.5,68.8,0,68.8,0
		s-65.8,151.9-143.6,151.9C313.1,546.1,247.2,390.1,247.2,390.1"/>
	<path class="st1" d="M334.6,461.3c0,0,43.4,10.5,62.8,8.8c26.9-2.4,62.8-15.1,62.8-15.1s-25.4,25.2-62.8,25.2
		S334.6,461.3,334.6,461.3"/>
	<path class="st1" d="M334.6,502.7c0,0,35.9,9,56.9,9s63.9-13.5,63.9-13.5s-37.6,20.9-57.9,20.9
		C357.1,519.1,334.6,502.7,334.6,502.7"/>
	<path class="st0" d="M416.9,383.4c0,0,31.4,17.6,43.4,20.6s47.9,6,47.9,6s-30.9,9-52.8,0C433.4,400.9,416.9,383.4,416.9,383.4"/>
	<path class="st1" d="M255.9,395.1c15.1,32.4,71.8,144.2,134.9,144.2c62.8,0,119.2-107.5,134.7-139.7c-13.5,2.1-38.4,4.3-61.2-1.9
		c-29.7-8.1-56.2-25.8-64.6-31.8c-9.4,4.9-39.7,19.7-75.1,27.4C297.2,399.2,270,397,255.9,395.1 M390.9,549.7
		c-80.3,0-145.7-152.7-148.4-159.2l-3.8-9.1l9.7,2c0.4,0.1,37.7,7.6,74.2-0.3c40.2-8.7,74.9-27.7,75.2-27.9l3-1.6l2.7,2
		c0.3,0.2,30.4,22.9,63.7,32c30.4,8.3,65.9,0,66.3,0l10.1-2.4l-4.1,9.5C536.5,401,471.1,549.7,390.9,549.7"/>
</g>
</svg>
