<?xml version="1.0" encoding="UTF-8"?>
<svg width="33px" height="33px" viewBox="0 0 33 33" version="1.1" xmlns="http://www.w3.org/2000/svg" xmlns:xlink="http://www.w3.org/1999/xlink">
    <title>Collapse</title>
    <defs>
        <polygon id="path-1" points="0 -1.83882392e-15 33 -1.83882392e-15 33 33 0 33"></polygon>
    </defs>
    <g id="Page-1" stroke="none" stroke-width="1" fill="none" fill-rule="evenodd">
        <g id="Navigation---Open" transform="translate(-1352.000000, -157.000000)">
            <g id="Minus-Button" transform="translate(1352.000000, 157.000000)">
                <g id="Plus-Button">
                    <g id="Group-3">
                        <mask id="mask-2" fill="white">
                            <use xlink:href="#path-1"></use>
                        </mask>
                        <g id="Clip-2"></g>
                        <path d="M24.7186863,33 L8.28131372,33 C3.72659117,33 0,29.2734088 0,24.7186863 L0,8.28131372 C0,3.72659117 3.72659117,0 8.28131372,0 L24.7186863,0 C29.2739264,0 33,3.72659117 33,8.28131372 L33,24.7186863 C33,29.2734088 29.2739264,33 24.7186863,33" id="Fill-1" fill="#13355A" mask="url(#mask-2)"></path>
                    </g>
                    <g id="Group" transform="translate(9.000000, 16.000000)" fill="#FFFFFF">
                        <polygon id="Fill-4" points="0 1 15 1 15 0 0 0"></polygon>
                    </g>
                </g>
            </g>
        </g>
    </g>
</svg>