<?xml version="1.0" encoding="utf-8"?>
<!-- Generator: Adobe Illustrator 23.0.6, SVG Export Plug-In . SVG Version: 6.00 Build 0)  -->
<svg version="1.1" id="Layer_1" xmlns="http://www.w3.org/2000/svg" xmlns:xlink="http://www.w3.org/1999/xlink" x="0px" y="0px"
	 viewBox="0 0 56 56" enable-background="new 0 0 56 56" xml:space="preserve">
<g>
	<g>
		<path d="M23.8,18.5c-7.3,0.9-11.9,3.5-11.9,6.8c0,1.1,0.4,1.4,2.6,1.4c7.3,0,10.4,3.1,10.4,7.9c0,5-4.1,8.6-9.9,8.6
			C7.4,43.2,2.1,37.8,2.1,30c0-7.1,4.2-16.4,20.7-17.2L23.8,18.5z"/>
	</g>
	<path d="M52.8,18.5C45.6,19.4,41,22.1,41,25.4c0,1.1,0.4,1.4,2.6,1.4c7.3,0,10.4,3.1,10.4,7.9c0,5-4.1,8.6-9.9,8.6
		c-7.5,0-12.8-5.5-12.8-13.3c0-7.1,4.2-16.4,20.7-17.2L52.8,18.5z"/>
</g>
</svg>