<?xml version="1.0" encoding="UTF-8"?>
<svg width="15px" height="15px" viewBox="0 0 15 15" version="1.1" xmlns="http://www.w3.org/2000/svg" xmlns:xlink="http://www.w3.org/1999/xlink">
  <path d="M11.0146879,5.89935866 C11.0146879,8.54626958 8.79794048,10.6996813 6.07317924,10.6996813 C3.34797509,10.6996813 1.13167059,8.54626958 1.13167059,5.89935866 C1.13167059,3.25244773 3.34797509,1.09903597 6.07317924,1.09903597 C8.79794048,1.09903597 11.0146879,3.25244773 11.0146879,5.89935866 M14.4959336,13.7772746 L10.52129,9.91576202 C11.5705356,8.82120067 12.1463142,7.40308975 12.1463142,5.89935866 C12.1463142,2.64622252 9.42155294,0.00017210084 6.07317924,0.00017210084 C2.72436263,0.00017210084 4.42906574e-05,2.64622252 4.42906574e-05,5.89935866 C4.42906574e-05,9.15249479 2.72436263,11.7985452 6.07317924,11.7985452 C7.28142837,11.7985452 8.44095779,11.4573553 9.4388263,10.8106864 L13.4945218,14.7500746 C13.6260651,14.8782897 13.8014561,14.9488511 13.9879197,14.9488511 L13.9923488,14.9488511 C14.1796983,14.9475603 14.3568609,14.875278 14.4906187,14.7453418 C14.7665495,14.4772948 14.7692069,14.0431704 14.4959336,13.7772746"></path>
</svg>