<?xml version="1.0" encoding="UTF-8"?>
<svg width="46px" height="45px" viewBox="0 0 46 45" version="1.1" xmlns="http://www.w3.org/2000/svg" xmlns:xlink="http://www.w3.org/1999/xlink">
    <title>Twitter</title>
    <g id="Page-1" stroke="none" stroke-width="1" fill="none" fill-rule="evenodd">
        <g id="Desktop-HD" transform="translate(-633.000000, -3707.000000)">
            <g id="FOOTER" transform="translate(0.000000, 3383.000000)">
                <g id="Social-Icons" transform="translate(570.000000, 323.866000)">
                    <g id="Twitter" transform="translate(64.000000, 0.000000)">
                        <path d="M44,22.5106 C44,34.6606 34.15,44.5106 22,44.5106 C9.85,44.5106 0,34.6606 0,22.5106 C0,10.3606 9.85,0.5106 22,0.5106 C34.15,0.5106 44,10.3606 44,22.5106" id="Fill-57" fill="#13355A"></path>
                        <path d="M44,22.5106 C44,34.6606 34.15,44.5106 22,44.5106 C9.85,44.5106 0,34.6606 0,22.5106 C0,10.3606 9.85,0.5106 22,0.5106 C34.15,0.5106 44,10.3606 44,22.5106 Z" id="Stroke-58" stroke="#0098CD" stroke-width="0.715"></path>
                        <path d="M30.2075,17.5028 C29.6105,17.7618 28.9615,17.9398 28.2755,18.0278 C28.9785,17.6098 29.5125,16.9688 29.7625,16.1858 C29.1125,16.5678 28.3825,16.8438 27.6175,16.9948 C27.0115,16.3458 26.1305,15.9448 25.1515,15.9448 C23.2995,15.9448 21.7865,17.4318 21.7865,19.2568 C21.7865,19.5238 21.8315,19.7738 21.8845,20.0138 C19.0805,19.8798 16.5965,18.5628 14.9405,16.5508 C14.6555,17.0488 14.4775,17.6098 14.4775,18.2148 C14.4775,19.3718 15.0825,20.3878 15.9735,20.9748 C15.4215,20.9658 14.9045,20.8148 14.4515,20.5658 L14.4515,20.6088 C14.4515,21.0368 14.5315,21.4288 14.6825,21.8028 C15.0925,22.8448 16.0265,23.6278 17.1575,23.8508 C16.8635,23.9308 16.5785,23.9748 16.2675,23.9748 C16.0535,23.9748 15.8395,23.9478 15.6345,23.9028 C16.0715,25.2208 17.3085,26.1828 18.7775,26.2178 C17.6205,27.1078 16.1785,27.6338 14.6025,27.6338 C14.3265,27.6338 14.0685,27.6148 13.7925,27.5888 C15.2875,28.5238 17.0595,29.0758 18.9555,29.0758 C24.2165,29.0758 27.4655,25.4348 28.3115,21.6508 C28.4625,20.9748 28.5335,20.3078 28.5335,19.6488 L28.5335,19.2208 C29.1835,18.7488 29.7625,18.1608 30.2075,17.5028" id="Fill-59" fill="#FEFEFE"></path>
                    </g>
                </g>
            </g>
        </g>
    </g>
</svg>