<svg xmlns="http://www.w3.org/2000/svg" width="357.8" height="97" viewBox="0 0 357.8 97">
  <title>Xavier University</title>
      <path d="M0,0H2.4V96.5H0ZM45.5,82.9c0,9.2-4.7,14.1-12.8,14.1S20,92.1,20,82.9V63.7h4.7V82.3c0,6.3,2,10.6,8,10.6s8.1-4.3,8.1-10.6V63.7h4.7ZM83.6,63.7V90.1h-.1L69.1,63.7H62.7V96.5h4.7v-27h.1l14.8,27h6V63.7Zm22,0h4.7V96.5h-4.7Zm44.1,0L139.3,92.3h-.1l-10-28.6h-5.3l12.3,32.8h5.9l12.5-32.8Zm18.7,0V96.5h18.4V92.3H173.1V81.5h12.5V77.4H173.1V67.8h13.7V63.7Zm38.7,14.1h4c4.5,0,7.1-2,7.1-5.2s-2.2-4.8-6.5-4.8h-4.6Zm-4.7-14.1h8.1c6.5,0,12.7,1,12.7,8.9,0,3.9-3,6.8-6.8,7.4,1.5.6,2.2,1.3,3.2,3.3l6.2,13.1h-5.3l-5-11.4c-1.5-3.2-3.1-3.2-5.5-3.2h-2.9V96.4h-4.7V63.7Zm53.3,4.9a14.24,14.24,0,0,0-6.1-1.3c-2.6,0-5.7.9-5.7,4.3,0,6.3,14.1,4.9,14.1,15.7,0,6.9-5.4,9.7-12,9.7a21.54,21.54,0,0,1-6.7-1.3l.4-4.4a23.23,23.23,0,0,0,6.8,1.6c2.7,0,6.5-1.5,6.5-5.4,0-7.3-14.1-5.3-14.1-15.5,0-5.8,4.6-8.9,10.5-8.9a21,21,0,0,1,7,1.2l-.7,4.3Zm17.4-4.9h4.7V96.5h-4.7Zm18.4,0v4.1h10.2V96.5h4.7V67.8h10.2V63.7Zm60.8,0-9.5,14.7L333,63.7h-5.5l12.9,19V96.5h4.7V82.7l12.7-19Z" fill="#9c9799"/>
      <path d="M101.2,31.7,111,10l9.2,21.7Zm41.3,10.6-17.1-39a2.77,2.77,0,0,1-.3-1.3c0-.2,0-.4.4-.7L127.1,0H100.4l.7,1.1c.3.5.4.6.4.8s0,.3-.5,1.2L81.6,44.8a13.44,13.44,0,0,1-1.2,2.4l-.3-.3-.6-.6-.3-.4-.6-.7-.4-.3-.9-1.2s-7.9-9.9-15.4-19.5l14-16c3.5-4,5-5.5,7-6.9L84.8,0h-24l1.8,1.3c1.3.9,1.4,1.4,1.4,1.9a10,10,0,0,1-2.2,4.1L55,15.6,49.3,7.3a8.43,8.43,0,0,1-2-4c0-.6.2-1.3,1.7-1.9L48.7,0H20.1V1.4c4.6,1.8,7.2,4.1,11.7,9.5L44.9,27.5l-12.3,14c-4.5,5-6.8,6.6-12.8,9.4v1.3H44.1l.3-1.3c-1.8-.9-1.9-1.4-1.9-2.1s.3-1.7,2.2-3.8l7.1-8.7c3,3.8,5.2,6.5,5.1,6.5,2.6,3.3,3.1,4.9,3.1,5.7s-.2,1.4-1.6,2.5l-1.8,1.2h42L97.4,51c-1.6-1.6-2-2.4-2-4.2a7.92,7.92,0,0,1,1-4l.5-1.1h27.4l2.6,5.9a3.5,3.5,0,0,1-1.6,4.6h23l-.8-1.1a51.1,51.1,0,0,1-5-8.8M324.9,23.6H313.7V9.2h9.8a25.6,25.6,0,0,1,5.5.5,7.27,7.27,0,0,1,5.3,6.6c0,4.2-3.9,7.3-9.4,7.3m6,27.4-1.4,1.2h28.3L355.9,51c-2.5-1.8-3.3-2.6-6.4-7.7-5.7-9.4-6.9-11.2-10.1-12.9,7.6-2,11.9-7.3,11.9-14.9,0-5.7-2.6-10.5-7.2-12.9S327.3,0,323.7,0H292V1.4c3.2,1.5,4.3,3.9,4.3,9.3v31c0,5.1-.9,7.3-4.1,9.2v1.3h28l-2.3-1.3c-3.3-1.8-4.2-4-4.2-9.2V32.8h2.1c5.4,0,9.7,2.5,13.2,7.6,1.9,2.9,3.4,6.4,3.4,8.1s-.2,1.4-1.5,2.5M290,38l-1.1-.8a17.53,17.53,0,0,1-6.4,3.9A42.18,42.18,0,0,1,269.3,43H252.8V30.5h14.8c3.3,0,5.5-1.1,6.9-3.4l3.9-6.8,1.2-2.1-2.1,1.1a12,12,0,0,1-5.9,1.2H252.8V9.2h16.4a33.17,33.17,0,0,1,17.4,4.4l1.6,1-.6-1.8L285,4.2c0,.1-.1-.6-.1-.6a6.37,6.37,0,0,1-.2-.9,1.8,1.8,0,0,1,.7-1.5L286.6,0H231.4V1.3c3.3,2.4,4,4.1,4,9V41.8c0,5.3-1.1,7.6-4.2,9.1v1.3h56.3L286.1,51c-.8-.7-.9-1-.9-1.4s0-.2.4-1.2L290,38Zm-67.9,3.7V10.5c0-5.2,1.1-7.6,4.2-9.1V0H182.4l-.3,1.4a2.94,2.94,0,0,1,2.1,3.2c0,1.9-.9,4.8-2.7,9L170.3,38.4,158.4,10.3c-1.2-3-1.7-4.8-1.7-6.1s.3-1.8,2.1-2.9L161.2,0H132.1l1.7,1.3c1.7,1.2,3,3.2,5.3,7.9l18.2,39.6a4.42,4.42,0,0,1,.5,1.5c0,.1,0,.3-.6.6l-2.1,1.3H180L178.6,51c-.5-.5-.6-.7-.6-.9a11.28,11.28,0,0,1,.8-2.4L197.3,9.2a32.17,32.17,0,0,1,4.6-7.5c2.7,1.6,3.7,4,3.7,8.8V41.7c0,5.2-1.2,7.6-4.3,9.2v1.3h25V50.9c-3.1-1.6-4.2-4-4.2-9.2" fill="#fff"/>
</svg>
