<?xml version="1.0" encoding="utf-8"?>
<!-- Generator: Adobe Illustrator 23.0.6, SVG Export Plug-In . SVG Version: 6.00 Build 0)  -->
<svg version="1.1" id="Layer_1" xmlns="http://www.w3.org/2000/svg" xmlns:xlink="http://www.w3.org/1999/xlink" x="0px" y="0px"
	 viewBox="0 0 470 98.7" enable-background="new 0 0 470 98.7" xml:space="preserve">
<path fill="#9C9799" d="M0,0h2.4v96.5H0V0z"/>
<g>
	<g>
		<path fill="#9EA1A2" d="M45.5,83c0,9.2-4.6,14.1-12.7,14.1C24.6,97.1,20,92.2,20,83V63.7h4.7v18.6c0,6.3,2,10.6,8,10.6
			s8-4.3,8-10.6V63.7h4.7L45.5,83L45.5,83z"/>
	</g>
	<polygon fill="#9EA1A2" points="62.7,63.7 69.1,63.7 83.5,90.1 83.6,90.1 83.6,63.7 88.3,63.7 88.3,96.5 82.3,96.5 67.5,69.6 
		67.4,69.6 67.4,96.5 62.7,96.5 	"/>
	<rect x="105.6" y="63.7" fill="#9EA1A2" width="4.7" height="32.8"/>
	<polygon fill="#9EA1A2" points="142.1,96.5 136.3,96.5 123.9,63.7 129.2,63.7 139.3,92.4 139.3,92.4 149.7,63.7 154.7,63.7 	"/>
	<polygon fill="#9EA1A2" points="168.4,63.7 186.8,63.7 186.8,67.9 173.1,67.9 173.1,77.5 185.6,77.5 185.6,81.6 173.1,81.6 
		173.1,92.4 186.8,92.4 186.8,96.5 168.4,96.5 	"/>
	<g>
		<path fill="#9EA1A2" d="M207.2,77.8h4c4.5,0,7.1-2,7.1-5.1c0-3-2.3-4.8-6.6-4.8h-4.5V77.8z M202.5,63.7h8c6.5,0,12.7,1,12.7,8.9
			c0,4-3,6.8-6.8,7.5v0.1c1.5,0.6,2.2,1.3,3.2,3.3l6.2,13.1h-5.4l-5-11.4c-1.5-3.2-3-3.2-5.5-3.2h-2.8v14.6h-4.7V63.7H202.5z"/>
		<path fill="#9EA1A2" d="M255.8,68.7c-2.4-0.9-3.7-1.4-6.2-1.4c-2.6,0-5.7,0.9-5.7,4.4c0,6.3,14.1,4.8,14.1,15.6
			c0,7-5.4,9.8-12,9.8c-2.3,0-4.6-0.7-6.7-1.4l0.5-4.4c1.6,0.7,4.4,1.6,6.8,1.6c2.7,0,6.4-1.5,6.4-5.4c0-7.3-14.1-5.3-14.1-15.5
			c0-5.8,4.6-8.9,10.5-8.9c2.2,0,4.7,0.4,7,1.2L255.8,68.7z"/>
	</g>
	<rect x="273.1" y="63.7" fill="#9EA1A2" width="4.7" height="32.8"/>
	<polygon fill="#9EA1A2" points="301.7,67.9 291.5,67.9 291.5,63.7 316.6,63.7 316.6,67.9 306.4,67.9 306.4,96.5 301.7,96.5 	"/>
	<polygon fill="#9EA1A2" points="340.4,82.8 327.6,63.7 333.1,63.7 342.8,78.4 352.4,63.7 357.9,63.7 345.1,82.8 345.1,96.5 
		340.4,96.5 	"/>
	<g>
		<path fill="#FFFFFF" d="M101.2,31.7L111,10l9.2,21.8L101.2,31.7L101.2,31.7z M142.5,42.3L125.4,3.2c-0.3-0.7-0.4-1-0.4-1.3
			c0-0.2,0-0.4,0.4-0.7l1.6-1.3h-26.8L101,1c0.3,0.4,0.3,0.6,0.3,0.7c0,0.4,0,0.4-0.4,1.2L81.5,44.6c-0.5,1.1-0.8,1.8-1.2,2.5l0,0
			c-0.1-0.1-0.2-0.2-0.3-0.3c-0.2-0.2-0.4-0.4-0.6-0.6c-0.1-0.1-0.2-0.3-0.4-0.4c-0.2-0.2-0.4-0.4-0.6-0.7c-0.1-0.1-0.2-0.2-0.3-0.4
			c-0.3-0.4-0.6-0.7-1-1.1c0,0-7.9-10-15.4-19.5L75.7,8c3.5-4,5-5.5,7-6.9L84.8,0h-24l1.8,1.3C63.9,2.2,64,2.7,64,3.2
			c0,1-0.6,2.2-2.1,4.1c0,0-5.1,6.2-6.8,8.3l-5.8-8.3c-1.2-1.6-2-3.1-2-4c0-0.6,0.2-1.3,1.7-1.9L48.7,0H20.1v1.4
			c4.6,1.8,7.2,4.1,11.6,9.6c0,0,6.6,8.4,13.1,16.6l-12.3,14c-4.5,5-6.7,6.6-12.7,9.4v1.4h24.3l0.3-1.4c-1.8-0.9-1.9-1.4-1.9-2.1
			c0-0.9,0.3-1.7,2.1-3.9c0,0,4.4-5.3,7.1-8.7c3,3.8,5.2,6.5,5.2,6.5c2.5,3.3,3,4.9,3,5.7c0,0.6-0.2,1.4-1.6,2.5l-1.7,1.3h42
			l-1.2-1.2c-1.6-1.6-2-2.4-2-4.3c0-1.4,0.3-2.6,1-3.9c0,0,0.3-0.7,0.5-1.1h27.4l2.5,5.9c1.3,3.1-1.6,4.7-1.6,4.7h23l-0.7-1.1
			C144.8,47.1,144,45.5,142.5,42.3"/>
		<path fill="#FFFFFF" d="M325,23.6h-11.3V9.2h9.8c2.1,0,4.7,0.2,5.5,0.4c2.9,0.8,5.3,3.8,5.3,6.7C334.4,20.6,330.4,23.6,325,23.6
			 M330.9,51l-1.4,1.3h28.3L356,51c-2.5-1.8-3.3-2.6-6.4-7.7c-5.7-9.4-6.9-11.1-10.1-12.8c7.6-2,12-7.4,12-14.9
			c0-5.8-2.7-10.5-7.3-13C339.8,0.3,327.3,0,323.7,0H292v1.4c3.2,1.5,4.3,3.9,4.3,9.3v31.1c0,5.1-1,7.3-4.2,9.2v1.3h28.1l-2.4-1.3
			c-3.2-1.8-4.2-4-4.2-9.2v-8.9h2.1c5.4,0,9.8,2.5,13.2,7.6c1.9,2.9,3.4,6.4,3.4,8.1C332.4,49.3,332.2,49.9,330.9,51"/>
		<path fill="#FFFFFF" d="M290.1,38l-1.1-0.8c-2.6,2.2-4.2,3.2-6.4,4c-3.4,1.2-8.5,1.9-13.2,1.9h-16.5V30.5h14.8
			c3.3,0,5.5-1.1,6.9-3.4l3.9-6.8l1.2-2.1l-2.1,1.1c-1.8,0.9-3.3,1.2-5.8,1.2H253V9.2h16.4c6.8,0,12.5,1.4,17.4,4.4l1.6,1l-0.5-1.8
			l-2.6-8.6l-0.2-0.7C285,3,285,2.9,285,2.7c0-0.6,0.1-0.9,0.7-1.5l1.2-1.2h-55.2v1.3c3.2,2.4,4,4.1,4,9.1v31.5
			c0,5.2-1.1,7.6-4.3,9.1v1.4h56.4l-1.4-1.3c-0.8-0.7-0.9-1-0.9-1.4c0-0.2,0-0.2,0.4-1.1L290.1,38z"/>
		<path fill="#FFFFFF" d="M222.1,41.7V10.5c0-5.2,1.1-7.6,4.2-9.2V0h-43.9l-0.3,1.4c1.5,0.8,2.1,1.6,2.1,3.2c0,1.9-0.9,4.9-2.7,9.1
			c0,0-8.6,19.2-11.1,24.8l-11.9-28.1c-1.2-3-1.8-4.9-1.8-6.1c0-1.1,0.3-1.8,2.2-2.9l2.3-1.3h-29.1l1.7,1.3c1.7,1.2,3,3.2,5.3,7.9
			L157.4,49c0.3,0.8,0.5,1.3,0.5,1.5c0,0.1,0,0.2-0.6,0.6l-2.1,1.3H180l-1.4-1.2c-0.5-0.5-0.6-0.7-0.6-0.9c0-0.3,0.3-1.3,0.8-2.4
			l18.5-38.6c2.2-4.3,3.7-6.4,4.7-7.5c2.6,1.6,3.6,4,3.6,8.8v31.2c0,5.2-1.1,7.6-4.2,9.2v1.4h25V51C223.2,49.4,222.1,47,222.1,41.7"
			/>
	</g>
	<rect x="374.2" fill="#9C9799" width="2.4" height="96.6"/>
	<g>
		<path fill="#FFFFFF" d="M402.1,1.4h3.6l10.1,23.8H412l-2.4-6h-11.7l-2.4,6h-3.6L402.1,1.4z M403.7,4.6L399,16.4h9.5L403.7,4.6z"/>
		<path fill="#FFFFFF" d="M429.1,1.4h3.4v20.8h10v3h-13.4V1.4z"/>
		<path fill="#FFFFFF" d="M455.9,1.4h3.4v20.8h10v3h-13.4V1.4z"/>
	</g>
	<g>
		<path fill="#FFFFFF" d="M394.3,37.9H407v3h-9.2v7h8.8v3h-8.8v10.9h-3.4V37.9H394.3z"/>
		<path fill="#FFFFFF" d="M429.2,37.5c7.2,0,11.5,5.3,11.5,12.3c0,7.2-4.2,12.3-11.5,12.3s-11.5-5.1-11.5-12.3
			C417.7,42.8,421.9,37.5,429.2,37.5z M429.2,59.2c5.5,0,7.8-4.6,7.8-9.3c0-4.8-2.6-9.4-7.8-9.3c-5.3,0-7.8,4.5-7.8,9.3
			C421.3,54.6,423.7,59.2,429.2,59.2z"/>
		<path fill="#FFFFFF" d="M452.8,37.9h5.8c4.7,0,9.2,0.8,9.2,6.5c0,2.9-2.1,5-4.9,5.4v0.1c1.1,0.4,1.6,0.9,2.3,2.4l4.5,9.5h-3.9
			l-3.7-8.3c-1.1-2.3-2.2-2.3-4-2.3h-2v10.6h-3.4V37.9H452.8z M456.3,48.2h2.9c3.2,0,5.2-1.4,5.2-3.7c0-2.2-1.6-3.5-4.8-3.5h-3.3
			L456.3,48.2L456.3,48.2z"/>
	</g>
	<g>
		<path fill="#FFFFFF" d="M404.8,74.1c7.2,0,11.5,5.3,11.5,12.3c0,7.2-4.2,12.3-11.5,12.3s-11.5-5.1-11.5-12.3
			C393.3,79.3,397.5,74.1,404.8,74.1z M404.8,95.7c5.5,0,7.8-4.6,7.8-9.3c0-4.8-2.6-9.4-7.8-9.3c-5.3,0-7.8,4.5-7.8,9.3
			C396.9,91.2,399.3,95.7,404.8,95.7z"/>
		<path fill="#FFFFFF" d="M426.5,74.5h4.6l10.5,19.2h0.1V74.5h3.4v23.8h-4.4L430,78.7h-0.1v19.6h-3.4V74.5z"/>
		<path fill="#FFFFFF" d="M456.7,74.5H470v3h-9.9v7h9v3h-9v7.9h9.9v3h-13.3V74.5z"/>
	</g>
</g>
</svg>
