<?xml version="1.0" encoding="utf-8"?>
<!-- Generator: Adobe Illustrator 23.0.3, SVG Export Plug-In . SVG Version: 6.00 Build 0)  -->
<svg version="1.1" id="Layer_1" xmlns="http://www.w3.org/2000/svg" xmlns:xlink="http://www.w3.org/1999/xlink" x="0px" y="0px"
	 viewBox="0 0 46 45" style="enable-background:new 0 0 46 45;" xml:space="preserve">
<title>YouTube</title>
<path d="M26,22.3l-4.9,2.6v-4v-1.2l2.2,1.2L26,22.3z M31.8,18.8c0,0-0.2-1.3-0.7-1.9c-0.7-0.7-1.5-0.8-1.8-0.8
	c-2.5-0.2-6.3-0.2-6.3-0.2h0c0,0-3.8,0-6.3,0.2c-0.4,0-1.1,0.1-1.8,0.8c-0.5,0.6-0.7,1.9-0.7,1.9s-0.2,1.5-0.2,3V22v1.2
	c0,1.5,0.2,3,0.2,3s0.2,1.3,0.7,1.9c0.7,0.8,1.6,0.7,2,0.8c1.4,0.1,6.1,0.2,6.1,0.2s3.8,0,6.3-0.2c0.3,0,1.1,0,1.8-0.8
	c0.5-0.6,0.7-1.9,0.7-1.9s0.2-1.5,0.2-3v-1.2v-0.3C32,20.3,31.8,18.8,31.8,18.8z"/>
</svg>
