<?xml version="1.0" encoding="UTF-8"?>
<svg width="46px" height="45px" viewBox="0 0 46 45" version="1.1" xmlns="http://www.w3.org/2000/svg" xmlns:xlink="http://www.w3.org/1999/xlink">
    <title>YouTube</title>
    <path d="M25.0059,22.3104 L20.1439,24.9314 L20.1439,20.8974 L20.1439,19.6694 L22.3459,20.8694 L25.0059,22.3104 Z M30.8139,18.7634 C30.8139,18.7634 30.6289,17.4674 30.0919,16.9034 C29.4099,16.1624 28.6409,16.1524 28.2999,16.1034 C25.7859,15.9184 22.0149,15.9184 22.0149,15.9184 L21.9949,15.9184 C21.9949,15.9184 18.2349,15.9184 15.7199,16.1034 C15.3599,16.1524 14.5999,16.1624 13.9179,16.9034 C13.3819,17.4674 13.1969,18.7634 13.1969,18.7634 C13.1969,18.7634 13.0119,20.2844 13.0119,21.7844 L13.0119,21.9794 L13.0119,23.2164 C13.0119,24.7364 13.1969,26.2374 13.1969,26.2374 C13.1969,26.2374 13.3819,27.5334 13.9179,28.1084 C14.5999,28.8584 15.4959,28.8294 15.9049,28.9074 C17.3379,29.0534 22.0149,29.1024 22.0149,29.1024 C22.0149,29.1024 25.7859,29.0824 28.2999,28.9074 C28.6409,28.8584 29.4099,28.8584 30.0919,28.1084 C30.6289,27.5334 30.8139,26.2374 30.8139,26.2374 C30.8139,26.2374 30.9879,24.7364 30.9879,23.2164 L30.9879,22.0574 L30.9879,21.7844 C30.9879,20.2844 30.8139,18.7634 30.8139,18.7634 Z"></path>
</svg>