<svg xmlns="http://www.w3.org/2000/svg" viewBox="0 0 56 56"><path d="M28 1C13.1 1 1 13.1 1 28s12.1 27 27 27 27-12.1 27-27S42.9 1 28 1z" fill="#0c233f"/><path d="M33.1 41H12c-.6 0-1.1.1-1.6.3V18.6c-1.8.6-3 2.3-3 4.3v22.7c0 1.3.5 2.4 1.3 3.2.8.8 2 1.3 3.2 1.3H33c.5 0 1-.4 1-1V42c.1-.6-.4-1-.9-1z" fill="#07719b"/><path d="M12 41h21c.5 0 1 .4 1 1V19.3c0-.3-.1-.5-.3-.7-.2-.2-.4-.3-.7-.3H12c-.6 0-1.1.1-1.6.3v22.7c.6-.2 1.1-.3 1.6-.3z" fill="#0599ce"/><path d="M32.6 48.1v-5.2H12c-.6 0-1.1.2-1.5.5-.6.4-1 1.1-1.1 1.8v.3c0 1.4 1.2 2.5 2.6 2.5l20.6.1z" fill="#edf2fa"/><path fill-rule="evenodd" clip-rule="evenodd" fill="#edf2fa" d="M48.4 15.3v23.6H26.1V10.3h17.3z"/><path d="M28.3 12.5H43v3.8h3.8v9H28.3V12.5zm17.2 5.2h-3.8v-3.8H29.6V24h15.9v-6.3z" fill="#0098cd"/><path d="M47.1 27.5H28v1.9h19.1v-1.9zM28 31.3h1.9v1.9H28v-1.9zm3.8 0h15.3v1.9H31.8v-1.9zM28 35.2h19.1v1.9H28v-1.9z" fill="#232323"/></svg>