<svg xmlns="http://www.w3.org/2000/svg" viewBox="0 0 326.27 353.74"><defs><style>.cls-1{isolation:isolate;}.cls-2{fill:#087eb4;}.cls-3{fill:#ffc808;}.cls-12,.cls-4{fill:#eb95ae;}.cls-4{opacity:0.2;mix-blend-mode:multiply;}.cls-5,.cls-8,.cls-9{fill:#daeef6;}.cls-5{opacity:0.5;}.cls-6{fill:#0c233f;}.cls-7{fill:#fff;}.cls-8{opacity:0.3;}.cls-10{fill:#12365a;}.cls-11{fill:none;stroke:#fff;stroke-linecap:round;stroke-linejoin:round;stroke-width:1.52px;}.cls-13{fill:#9ea1a2;}.cls-14{fill:#0a2240;}</style></defs><g class="cls-1"><g id="Layer_1" data-name="Layer 1"><path class="cls-2" d="M154.12,335.9s-133.91-9.83-150-75.13S23.69,186.58,35.87,150-7.22,91.85,29.78,42.08,121.34-8.55,144.33,14.89,193.83.56,236.5,21.83s53.13,64.25,39.63,97.82S318,185.32,324.91,223.38,269.22,352.68,154.12,335.9Z"/><path class="cls-3" d="M18.43,353.74H98.68l6.66-17.87a25.31,25.31,0,0,1,13.35-14.21,63.84,63.84,0,0,0,21.22-15.87,146.91,146.91,0,0,0,22.58-34.23l-49.73-.25s4.48-27.74-20.24-64.59a20.78,20.78,0,0,1-3.44-13.4l2.34-26.88s16.8-18.72,6.5-41.94c0,0-9.86-13.61-13.77-8.63,0,0-29.77,70.7-32.48,81.21S45.35,214.2,49,247.23a199.5,199.5,0,0,1,1.29,22,77.93,77.93,0,0,1-7.54,33.28Z"/><path class="cls-4" d="M93.28,307.89c-7.45-8.25-17.8-6.95-28.68-10.71S50.23,266.3,50.23,266.3h0c0,1,0,2,0,3a77.93,77.93,0,0,1-7.54,33.28L18.43,353.74H98.68l6.66-17.87a25.31,25.31,0,0,1,13.35-14.21,62.31,62.31,0,0,0,17.82-12.32C114.41,318.61,100.73,316.13,93.28,307.89Z"/><path class="cls-5" d="M268.88,123a2.77,2.77,0,0,0-3.4-2,4.06,4.06,0,0,0-3.69-2.35,4.37,4.37,0,0,0-1.21.18,5,5,0,0,0-9,.88,3.35,3.35,0,0,0-1.67-.43,3.45,3.45,0,0,0-3.45,3.43c0,.12,0,.23,0,.34Z"/><path class="cls-5" d="M236.5,42a7.22,7.22,0,0,0-7-5.59,7.41,7.41,0,0,0-1.83.24A10.65,10.65,0,0,0,214.83,31a13.13,13.13,0,0,0-23.56,2.28,9,9,0,0,0-13.37,7.84c0,.3,0,.59,0,.87Z"/><path class="cls-5" d="M77.63,97a6,6,0,0,0-5.89-4.68,5.94,5.94,0,0,0-1.53.2A8.92,8.92,0,0,0,59.5,87.83a11,11,0,0,0-19.72,1.91A7.53,7.53,0,0,0,28.59,96.3c0,.25,0,.49,0,.73Z"/><path class="cls-3" d="M207.36,68.74s17-11.35,20.88-3.87-22.08,33.92-22.08,33.92Z"/><path class="cls-3" d="M207.36,118.17s17-11.34,20.88-3.87-22.08,33.93-22.08,33.93Z"/><path class="cls-3" d="M207.36,151.85s17-11.34,20.88-3.87-22.08,33.93-22.08,33.93Z"/><path class="cls-6" d="M195.62,56H102.31A12.56,12.56,0,0,0,89.72,68.57V258.76a12.57,12.57,0,0,0,12.59,12.55h93.31a12.56,12.56,0,0,0,12.58-12.55V68.57A12.56,12.56,0,0,0,195.62,56Z"/><path class="cls-4" d="M98.23,215.94s-16.88,41.21-15.24,49,11.87,18.21,37,14.73a387.22,387.22,0,0,0,42.5-8.11s1-55.61,0-58.43-46.23-22.84-48-22.84S98.23,215.94,98.23,215.94Z"/><rect class="cls-7" x="95.82" y="73.13" width="106.28" height="181.08"/><path class="cls-7" d="M170.65,67.44h-43.2a1.14,1.14,0,0,1-1.14-1.14h0a1.14,1.14,0,0,1,1.14-1.13h43.2a1.14,1.14,0,0,1,1.14,1.13h0A1.14,1.14,0,0,1,170.65,67.44Z"/><path class="cls-3" d="M87.61,182.66a7.9,7.9,0,0,0,2.09,3.55l1.72-19.77s12.36-13.77,9.37-32.34a27.7,27.7,0,0,0-9-16.46c-2.77-2.43-5.81-4-7.6-1.77,0,0-14,33.25-23.67,57.53Z"/><ellipse class="cls-8" cx="148.9" cy="262.94" rx="5.22" ry="5.21"/><path class="cls-9" d="M150.46,265.1h-3.11a.61.61,0,0,1-.62-.61v-3.11a.61.61,0,0,1,.62-.61h3.11a.61.61,0,0,1,.62.61v3.11A.61.61,0,0,1,150.46,265.1Zm-3.11-4.17a.45.45,0,0,0-.45.45v3.11a.45.45,0,0,0,.45.45h3.11a.45.45,0,0,0,.45-.45v-3.11a.45.45,0,0,0-.45-.45Z"/><rect class="cls-10" x="95.82" y="243.5" width="106.28" height="10.71"/><rect class="cls-10" x="95.82" y="73.13" width="106.28" height="9.61"/><path class="cls-4" d="M86.67,135.4c3.87-1.78,5.89-11.81,6.61-16.32-3.11-3.12-7-5.92-9.13-3.21,0,0-3.08,7.32-7.35,17.6C79.72,135.09,83.78,136.73,86.67,135.4Z"/><rect class="cls-9" x="105.05" y="126.09" width="87.83" height="59.47" rx="12"/><path class="cls-11" d="M108.74,176.06V138a9.14,9.14,0,0,1,9.12-9.12h16.67"/><path class="cls-11" d="M189.46,140.2v32.9a9.15,9.15,0,0,1-9.13,9.12"/><path class="cls-10" d="M150.41,160.69c1.07,1,2.14,2,3.19,3s1.11,1.07,0,2.15l-2.69,2.57c-.16.15-.34.28-.69.56,0-.93,0-1.67,0-2.4,0-.46-.18-.62-.64-.65-3.05-.14-6.11-.16-9.14-.51-4.5-.51-8.95-1.31-13-3.65a7,7,0,0,1-1.42-1.06c-1.67-1.59-1.54-3.53.25-5a13.57,13.57,0,0,1,3.28-1.94,17.78,17.78,0,0,1,1.85-.67,5.29,5.29,0,0,1,1.71-.37.51.51,0,0,1,.22.06c.19.11.11.43,0,.54a.73.73,0,0,1-.32.15,18,18,0,0,0-4.6,2.34,2.08,2.08,0,0,0-.17,3.29,11.34,11.34,0,0,0,4.9,2.53,56.16,56.16,0,0,0,16.27,2c.62,0,.82-.24.79-.83s0-1.33,0-2Z"/><path class="cls-10" d="M162.11,152.34c0,.67,0,1.34,0,2a3.83,3.83,0,0,1-3.66,4,3.88,3.88,0,0,1-4.34-3.39,27.91,27.91,0,0,1,.08-5.25c.19-1.81,1.58-2.88,3.61-3.12a3.79,3.79,0,0,1,3.86,2.16,15.81,15.81,0,0,1,.45,3.64Zm-2.17.1h0c0-.7.05-1.39,0-2.09a1.85,1.85,0,0,0-1.83-1.89,2,2,0,0,0-1.85,2.08c0,1.23,0,2.47,0,3.71a1.94,1.94,0,0,0,1.78,2.13,2,2,0,0,0,1.93-2C160,153.73,159.94,153.08,159.94,152.44Z"/><path class="cls-10" d="M157.42,165.47l-.23,0c-.6.06-.67-.46-.62-.95a4.28,4.28,0,0,0,0-.62c0-.47.14-.67.64-.75,2.19-.37,4.39-.71,6.54-1.24a12.11,12.11,0,0,0,5.81-2.7c1.17-1.13,1.22-2.51-.1-3.43a19.15,19.15,0,0,0-4.55-2.32.69.69,0,0,1-.4-.28c-.3-.57.68-.51,1-.4,1.71.68,3.44,1.36,5.1,2.17a5.79,5.79,0,0,1,1.74,1.5,2.8,2.8,0,0,1-.14,4,11.91,11.91,0,0,1-4.62,2.75A39.88,39.88,0,0,1,157.42,165.47Z"/><path class="cls-10" d="M150.88,147l-2.26,3.24c.53,0,.93.07,1.32.12a3.71,3.71,0,0,1,3,4.46,3.94,3.94,0,0,1-3.21,3.38,4.15,4.15,0,0,1-4.34-1.39,4.69,4.69,0,0,1-.13-5.31c.9-1.38,1.88-2.72,2.78-4.1a1.25,1.25,0,0,1,1.27-.65c.48,0,1,0,1.44,0Zm-.09,7.28a2.11,2.11,0,0,0-2-2.09,2.07,2.07,0,0,0-2.09,2.14,2,2,0,1,0,4.07-.05Z"/><path class="cls-10" d="M141.67,152a2.9,2.9,0,0,0,.33.24,2.78,2.78,0,0,1,1.47,3.06,3.28,3.28,0,0,1-2.19,2.69,4.52,4.52,0,0,1-4.3-.41,3.26,3.26,0,0,1-1.34-2.18.58.58,0,0,1,.07-.43c.3-.34,2,0,2.21.37a1.91,1.91,0,0,0,2,1.05,1.73,1.73,0,0,0,1.4-1.47c.18-1.06-.69-2-2.05-2-.69,0-.9-.23-.86-.91,0-.48.17-.65.66-.72,1.06-.15,1.56-.69,1.58-1.5a1.19,1.19,0,0,0-.93-1.27,1.11,1.11,0,0,0-1.31.57,1.76,1.76,0,0,1-2,.57.72.72,0,0,1-.23-.62,3.35,3.35,0,0,1,3.44-2.54c2.19.05,3.63,1.63,3.15,3.63A7.28,7.28,0,0,1,141.67,152Z"/><path class="cls-10" d="M167.09,147.69a2.1,2.1,0,0,1-2.16,2.15,2.19,2.19,0,0,1-2.09-2.08,2.11,2.11,0,0,1,2.1-2.21A2,2,0,0,1,167.09,147.69ZM165,148.94a1.21,1.21,0,0,0,1.15-1.21,1.18,1.18,0,0,0-1.1-1.25,1.16,1.16,0,0,0-1.23,1.2A1.2,1.2,0,0,0,165,148.94Z"/><path class="cls-3" d="M184.13,192.39s-14.36,1.2-14.86,5,.6,10.51,14.15,11.81h14s-4.2-11.61-4-12S184.13,192.39,184.13,192.39Z"/><path class="cls-3" d="M161.1,249.14a3.87,3.87,0,0,0-1.52,5.38c6.6,11.36,32.87,56.51,35.24,60.18,2.71,4.21,9.33,14.12,31.31,19.22s31,19.82,31,19.82h67.76s-16-25.22-29.21-90.69c0,0-10.24-54.36-29.51-52.56,0,0-11.75-12.31-23.19-9.91,0,0-21.68-12.91-34-12.91l-29.66-35a8.59,8.59,0,0,0-11.71-1.38,5.6,5.6,0,0,0-2.29,3.6c-.91,5.71,6.62,20.12,18.67,37.54s41.85,72.68,28.9,97a130.7,130.7,0,0,1-24.69-25.83C178.61,250.32,167.34,245.84,161.1,249.14Z"/><path class="cls-12" d="M209.08,187.68a124.78,124.78,0,0,1,11.11,10.83A135.33,135.33,0,0,1,230,210.56a95.47,95.47,0,0,1,8.09,13.28,49.89,49.89,0,0,1,4.9,14.72l-.09,0a56.62,56.62,0,0,0-5.44-14.41,108.07,108.07,0,0,0-8.19-13.09c-3-4.19-6.24-8.21-9.62-12.1-3.18-3.66-7.18-7.94-10.63-11.23Z"/><path class="cls-12" d="M242.8,200.49a33.3,33.3,0,0,1,8.59,6.49A41.93,41.93,0,0,1,262,225.65a40.57,40.57,0,0,1,1.36,10.65h-.09a52.91,52.91,0,0,0-2-10.45,47.36,47.36,0,0,0-10.42-18.39,39.76,39.76,0,0,0-8.1-6.89Z"/><path class="cls-12" d="M266,210.25a29.83,29.83,0,0,1,7.07,8.46,37.31,37.31,0,0,1,5,17.58l-.09,0a51.16,51.16,0,0,0-5.65-17.19,40,40,0,0,0-6.38-8.81Z"/><path class="cls-4" d="M174.77,263.12c.6-3-3-7.86-6.17-11.5a7.52,7.52,0,0,0-8-2.17,3.88,3.88,0,0,0-1,5.07l8.74,15C171.14,268.1,174.22,265.93,174.77,263.12Z"/><path class="cls-4" d="M177.62,166.43c1.71-.34,9.48-2.92,9-4.33h0l-7.67-9a8.74,8.74,0,0,0-5.84-3h0l-.4,0a3.87,3.87,0,0,0-4.11,3.07c-.55,2.74,4,9.4,6,12.17A3,3,0,0,0,177.62,166.43Z"/><path class="cls-10" d="M41.55,306.52c8.49,5.2,35.83,20.76,64.1,24.08,1.65.19,2.82,1.7,2.33,3L103,346.8a2.18,2.18,0,0,1-2.41,1.25c-8.33-1-42.71-6.17-66.89-24.82a2.17,2.17,0,0,1-.86-2.43l5-13.46C38.39,306.08,40.17,305.67,41.55,306.52Z"/><path class="cls-2" d="M39.26,319.2l-.47-.17a.75.75,0,0,1-.44-1L40,313.62a.75.75,0,0,1,1-.44l.47.17a.76.76,0,0,1,.45,1l-1.66,4.44A.76.76,0,0,1,39.26,319.2Z"/><path class="cls-2" d="M44.11,322.24h0a1,1,0,0,1-.59-1.29L45,317a1,1,0,0,1,1.3-.59h0a1,1,0,0,1,.59,1.29l-1.48,4A1,1,0,0,1,44.11,322.24Z"/><path class="cls-2" d="M49.2,325.35h0a1,1,0,0,1-.59-1.3l1.49-4a1,1,0,0,1,1.29-.59h0a1,1,0,0,1,.6,1.3l-1.49,4A1,1,0,0,1,49.2,325.35Z"/><path class="cls-2" d="M54.44,327.87h0a1,1,0,0,1-.59-1.29l1.49-4a1,1,0,0,1,1.29-.59h0a1,1,0,0,1,.6,1.29l-1.49,4A1,1,0,0,1,54.44,327.87Z"/><path class="cls-2" d="M59.6,330.8h0a1,1,0,0,1-.59-1.29l1.48-4a1,1,0,0,1,1.3-.59h0a1,1,0,0,1,.59,1.3l-1.48,4A1,1,0,0,1,59.6,330.8Z"/><path class="cls-2" d="M65,333.13h0a1,1,0,0,1-.59-1.29l1.49-4a1,1,0,0,1,1.29-.59h0a1,1,0,0,1,.6,1.29l-1.49,4A1,1,0,0,1,65,333.13Z"/><path class="cls-2" d="M70.71,335.26l-.47-.17a.76.76,0,0,1-.45-1l1.66-4.44a.76.76,0,0,1,1-.44l.47.17a.75.75,0,0,1,.44,1l-1.66,4.44A.75.75,0,0,1,70.71,335.26Z"/><path class="cls-2" d="M76.07,336.94h0a1,1,0,0,1-.59-1.3l1.48-4a1,1,0,0,1,1.3-.59h0a1,1,0,0,1,.59,1.3l-1.49,4A1,1,0,0,1,76.07,336.94Z"/><path class="cls-2" d="M82.13,338.18l-.47-.18a.74.74,0,0,1-.45-1l1.66-4.44a.76.76,0,0,1,1-.44l.47.18a.75.75,0,0,1,.44,1l-1.66,4.43A.76.76,0,0,1,82.13,338.18Z"/><path class="cls-2" d="M87.79,339.74l-.47-.18a.75.75,0,0,1-.44-1l1.66-4.43a.76.76,0,0,1,1-.45l.47.18a.74.74,0,0,1,.45,1l-1.66,4.44A.76.76,0,0,1,87.79,339.74Z"/><path class="cls-2" d="M93.45,340.64h0a1,1,0,0,1-.6-1.3l1.49-4a1,1,0,0,1,1.3-.59h0a1,1,0,0,1,.59,1.3l-1.49,4A1,1,0,0,1,93.45,340.64Z"/><path class="cls-2" d="M99.57,341.69l-.47-.18a.75.75,0,0,1-.44-1l1.66-4.44a.75.75,0,0,1,1-.44l.48.17a.76.76,0,0,1,.44,1l-1.66,4.43A.77.77,0,0,1,99.57,341.69Z"/><path class="cls-2" d="M58.33,337.06l0-.06a1.31,1.31,0,0,1-.27-.06l-6.69-2.49a1.34,1.34,0,0,1-.72-1.74l6-16.11a1.34,1.34,0,0,1,1.68-.85l6.69,2.49a1.25,1.25,0,0,1,.76.88c.52.23,1.05.46,1.59.68a2.88,2.88,0,0,0-1.76-3.13L59,314.18a3,3,0,0,0-3.73,1.87l-6,16.12A3,3,0,0,0,50.81,336l6.69,2.49a2.81,2.81,0,0,0,2.89-.62C59.7,337.62,59,337.35,58.33,337.06Z"/><path class="cls-7" d="M56.86,324.28,54,323.19a1.09,1.09,0,0,0-.76,2l2.91,1.08Z"/><path class="cls-4" d="M257.15,353.74h67.76s-10.47-16.54-21.48-57.59c-4.84,30.23-31.51,28.49-42.09,30.16-12.19,1.93-59.5-7.9-66.13-11,2.95,4.48,9.94,13.74,30.92,18.61C248.12,339,257.15,353.74,257.15,353.74Z"/><path class="cls-4" d="M187.56,198c13.28,21.29,37.12,70.19,25.32,91.53l7.83,7.7s19.78-21.85-11.69-70A323.41,323.41,0,0,0,187.56,198Z"/><path class="cls-2" d="M4.16,136c-2.76-13.91,18.05-18.59,21.39-4.81a20.72,20.72,0,0,1,.56,4.19C26.76,152,16.71,170,6,167s-4.54-14.35-1.3-21.14C6.24,142.66,4.87,139.61,4.16,136Z"/><path class="cls-2" d="M307.06,105.09c-2.67-1.14-6-.82-10.08,1.81-3.47,2.23-5.75,6-7,9.92-5.24,16.47-1.5,44.47,17.33,51,7.59,2.64,15.8.61,18.53-7.52,2.08-6.2-3.72-11.55-5.77-16.86C315.77,132.31,321.11,111.1,307.06,105.09Z"/><path class="cls-5" d="M228.63,103.5a5.76,5.76,0,0,1,7-4.24,8.42,8.42,0,0,1,7.63-4.85,8.66,8.66,0,0,1,2.51.38,10.4,10.4,0,0,1,18.66,1.81,7.14,7.14,0,0,1,10.59,6.21c0,.24,0,.47,0,.69Z"/><path class="cls-5" d="M75.94,24.9a4.1,4.1,0,0,1,4-3.17,4.4,4.4,0,0,1,1,.13,6,6,0,0,1,5.46-3.47,6.27,6.27,0,0,1,1.8.27A7.44,7.44,0,0,1,101.58,20a5.11,5.11,0,0,1,7.58,4.44,4.07,4.07,0,0,1,0,.5Z"/><path class="cls-7" d="M251.53,175.13s-.7,6.86-6.13,7.33c5.43.48,6.13,7.34,6.13,7.34s.69-6.86,6.13-7.34C252.22,182,251.53,175.13,251.53,175.13Z"/><path class="cls-7" d="M242,66.41s-.5,4.93-4.4,5.27C241.47,72,242,77,242,77s.5-4.93,4.4-5.27C242.47,71.34,242,66.41,242,66.41Z"/><path class="cls-7" d="M73.08,40s-.32,3.09-2.77,3.31c2.45.21,2.77,3.31,2.77,3.31s.31-3.1,2.76-3.31C73.39,43.11,73.08,40,73.08,40Z"/><path class="cls-7" d="M53.11,124.4s-.7,6.86-6.13,7.33c5.43.48,6.13,7.34,6.13,7.34s.7-6.86,6.13-7.34C53.81,131.26,53.11,124.4,53.11,124.4Z"/><path class="cls-7" d="M265.9,156.14s-.47,4.54-4.06,4.85c3.59.31,4.06,4.86,4.06,4.86s.46-4.55,4.05-4.86C266.36,160.68,265.9,156.14,265.9,156.14Z"/><path class="cls-7" d="M254.43,53.28s-.25,2.47-2.21,2.64c2,.18,2.21,2.65,2.21,2.65s.25-2.47,2.21-2.65C254.68,55.75,254.43,53.28,254.43,53.28Z"/><path class="cls-7" d="M64.54,108.34s-.47,4.54-4.06,4.85c3.59.31,4.06,4.86,4.06,4.86s.46-4.55,4-4.86C65,112.88,64.54,108.34,64.54,108.34Z"/><path class="cls-7" d="M90.58,33.46s-.25,2.37-2.13,2.54c1.88.16,2.13,2.54,2.13,2.54s.24-2.38,2.12-2.54C90.82,35.83,90.58,33.46,90.58,33.46Z"/><path class="cls-7" d="M244.9,142.5s-.21,2-1.81,2.17c1.6.14,1.81,2.18,1.81,2.18s.21-2,1.82-2.18C245.11,144.53,244.9,142.5,244.9,142.5Z"/><path class="cls-7" d="M57.93,151.2s-.2,2-1.81,2.17c1.61.14,1.81,2.17,1.81,2.17s.21-2,1.82-2.17C58.14,153.23,57.93,151.2,57.93,151.2Z"/><path class="cls-7" d="M76.81,56.64s-.41,4-3.59,4.29c3.18.28,3.59,4.29,3.59,4.29s.4-4,3.58-4.29C77.21,60.66,76.81,56.64,76.81,56.64Z"/><path class="cls-13" d="M155.25,87.42l-3-4.68,3.06-4.7,2-1.87H140.79L142.84,78l3.06,4.71-3,4.68-2.05,1.89h16.48l-2-1.89Zm-6.2,1-1.28-.74,1.28-1.92,1.29,1.92-1.29.74Zm0-8.64-1.28-1.92,1.28-.74,1.29.74-1.29,1.92Z"/><path class="cls-7" d="M155,87.62l-3.18-4.88,3.2-4.91,1.47-1.35H141.61l1.47,1.34,3.2,4.92-3.18,4.88L141.62,89h14.87L155,87.62Zm-6.56-10.55.6-.35.61.35,1.12.65-1.73,2.6-1.73-2.6,1.13-.65Zm1.21,11.34-.61.35-.6-.35-1.13-.65,1.73-2.6,1.73,2.6-1.12.65Z"/><polygon class="cls-14" points="151.45 82.74 154.78 77.63 155.69 76.8 149.82 76.8 151.24 77.61 149.05 80.89 146.87 77.61 148.29 76.8 142.42 76.8 143.32 77.62 146.66 82.74 143.34 87.83 142.42 88.68 148.29 88.68 146.87 87.86 149.05 84.59 151.24 87.86 149.82 88.68 155.69 88.68 154.77 87.83 151.45 82.74 151.45 82.74"/></g></g></svg>